<svg width="120" height="23" viewBox="0 0 120 23" fill="none" xmlns="http://www.w3.org/2000/svg">
<g opacity="0.7" clip-path="url(#clip0_246_664)">
<path d="M9.38299 8.73164L4.70639 0L9.38299 2.30836L14.0596 0L9.38299 8.73164Z" fill="white"/>
<path d="M15.5447 6.83719L18.7362 5.50738V0.919922L13.017 3.30774L9.84681 9.21247C12.2128 9.43828 14.0596 11.4037 14.0596 13.7874C14.0596 16.3299 11.966 18.3832 9.38298 18.3832C6.8 18.3832 4.70213 16.3299 4.70213 13.7874C4.70213 11.4037 6.55319 9.43828 8.91489 9.21247L5.74894 3.30774L0.0297872 0.919922V5.50738L3.22128 6.83719C1.25106 8.52665 0 11.0106 0 13.7874C0 18.8766 4.19574 22.9999 9.37872 22.9999C14.5617 22.9999 18.7574 18.8766 18.7574 13.7874C18.7574 11.0148 17.5106 8.52665 15.5404 6.83719H15.5447Z" fill="white"/>
<path d="M45.766 16.5596C45.766 19.9887 41.6255 21.5778 36.1745 21.5778C30.7234 21.5778 26.583 19.9887 26.583 16.5596C26.583 14.9203 27.5149 13.7201 29.0809 12.8879H25.7234L24.8128 11.5163H34.5277V8.72703H27.966C27.1319 8.72703 26.4511 8.06631 26.4511 7.25921V2.3623H28.9745C29.3787 2.3623 29.7319 2.70521 29.7319 3.0983V6.62358C29.7319 7.01667 30.0851 7.35958 30.4894 7.35958H46.1106C46.3362 7.35958 46.3872 7.62721 46.3872 8.0454C46.3872 8.46358 46.3362 8.73121 46.1106 8.73121H37.8085V11.5205H46.7447C46.9702 11.5205 47.0213 11.7881 47.0213 12.2063C47.0213 12.6245 46.9702 12.8921 46.7447 12.8921H43.2638C44.8298 13.7243 45.7617 14.9245 45.7617 16.5638L45.766 16.5596ZM42.3575 16.5596C42.3575 14.0881 39.6809 12.913 36.1745 12.913C32.6681 12.913 29.9915 14.0881 29.9915 16.5596C29.9915 19.031 32.6681 20.2061 36.1745 20.2061C39.6809 20.2061 42.3575 19.031 42.3575 16.5596Z" fill="white"/>
<path d="M66.966 10.342H62.2724C61.1617 11.5924 59.1915 12.3995 56.7192 12.3995C52.8085 12.3995 50.183 10.3671 50.183 7.87059C50.183 6.64531 50.8128 5.52041 51.9234 4.71331H49.7021L48.7915 3.34168H54.9234V1.50586H57.549C57.9532 1.50586 58.3064 1.84877 58.3064 2.24186V3.34168H63.9107C64.1362 3.34168 64.1872 3.60931 64.1872 4.0275C64.1872 4.44568 64.1362 4.71331 63.9107 4.71331H61.5149C61.9447 5.03113 62.2979 5.39913 62.5745 5.79222H66.966V2.1164H69.4894C69.8936 2.1164 70.2468 2.45931 70.2468 2.85241V20.7213H53.0851C52.2511 20.7213 51.5702 20.0606 51.5702 19.2535V13.1355H54.0936C54.4979 13.1355 54.8511 13.4784 54.8511 13.8715V15.193H66.966V10.3462V10.342ZM54.8511 16.5604V18.6179C54.8511 19.011 55.2043 19.3539 55.6085 19.3539H66.966V16.5646H54.8511V16.5604ZM60.0255 7.87059C60.0255 6.23131 58.7404 4.71331 56.7192 4.71331C54.6979 4.71331 53.4128 6.15604 53.4128 7.87059C53.4128 9.58513 54.7234 11.0279 56.7192 11.0279C58.7149 11.0279 60.0255 9.58513 60.0255 7.87059ZM63.0766 8.97041H66.9617V7.15968H63.1745C63.2255 7.38131 63.2511 7.62386 63.2511 7.87059C63.2511 8.26368 63.2 8.6275 63.0724 8.97041H63.0766Z" fill="white"/>
<path d="M93.9702 20.7211H90.6893V2.11621H93.2128C93.617 2.11621 93.9702 2.45912 93.9702 2.85221V7.74912H96.4681C96.6936 7.74912 96.7447 8.01676 96.7447 8.43494C96.7447 8.85312 96.6936 9.12076 96.4681 9.12076H93.9702V20.7253V20.7211ZM81.9787 9.12076C81.9787 13.5995 84.7276 16.832 88.1617 18.2497L87.0511 19.2533C84.3234 18.3458 81.4213 16.1462 80.3362 13.6706C79.251 16.142 76.3489 18.3458 73.6213 19.2533L72.5106 18.2497C75.9447 16.8278 78.6936 13.5995 78.6936 9.12076V2.36294H81.217C81.6213 2.36294 81.9745 2.70585 81.9745 3.09894V9.12076H81.9787Z" fill="white"/>
<path d="M102.677 18.6177V14.8499H100.783C99.9489 14.8499 99.2681 14.1892 99.2681 13.3821V7.9959H115.17V4.22808H99.6723L98.7617 2.85645H117.689C118.094 2.85645 118.447 3.19935 118.447 3.59245V9.36754H102.545V12.7464C102.545 13.1395 102.898 13.4824 103.302 13.4824H118.672C118.898 13.4824 118.949 13.7501 118.949 14.1683C118.949 14.5864 118.898 14.8541 118.672 14.8541H115.038V18.6219H119.43C119.655 18.6219 119.706 18.8895 119.706 19.3077C119.706 19.7259 119.655 19.9935 119.43 19.9935H98.4042L97.4979 18.6219H102.672L102.677 18.6177ZM105.957 14.8457V18.6135H111.762V14.8457H105.957Z" fill="white"/>
</g>
<defs>
<clipPath id="clip0_246_664">
<rect width="120" height="23" fill="white"/>
</clipPath>
</defs>
</svg>
