<svg width="160" height="31" viewBox="0 0 160 31" fill="none" xmlns="http://www.w3.org/2000/svg">
<path d="M12.5413 11.7687L6.29053 0L12.5413 3.11127L18.792 0L12.5413 11.7687Z" fill="white"/>
<path d="M20.7771 9.21569L25.0428 7.42333V1.24023L17.3986 4.4586L13.1613 12.4171C16.3236 12.7215 18.7921 15.3706 18.7921 18.5833C18.7921 22.0102 15.9937 24.7777 12.5413 24.7777C9.0889 24.7777 6.28488 22.0102 6.28488 18.5833C6.28488 15.3706 8.75902 12.7215 11.9157 12.4171L7.68405 4.4586L0.0398137 1.24023V7.42333L4.30557 9.21569C1.67218 11.4928 0 14.8408 0 18.5833C0 25.4428 5.60805 31.0002 12.5356 31.0002C19.4632 31.0002 25.0713 25.4428 25.0713 18.5833C25.0713 14.8464 23.4048 11.4928 20.7714 9.21569H20.7771Z" fill="white"/>
<path d="M61.171 22.32C61.171 26.9418 55.6369 29.0837 48.351 29.0837C41.0651 29.0837 35.531 26.9418 35.531 22.32C35.531 20.1106 36.7766 18.4929 38.8697 17.3713H34.3821L33.1649 15.5226H46.1499V11.7631H37.3795C36.2647 11.7631 35.3547 10.8726 35.3547 9.78475V3.18457H38.7275C39.2678 3.18457 39.7399 3.64675 39.7399 4.17657V8.92803C39.7399 9.45784 40.2119 9.92003 40.7523 9.92003H61.6317C61.9332 9.92003 62.0014 10.2808 62.0014 10.8444C62.0014 11.408 61.9332 11.7688 61.6317 11.7688H50.5351V15.5282H62.4792C62.7806 15.5282 62.8489 15.8889 62.8489 16.4526C62.8489 17.0162 62.7806 17.3769 62.4792 17.3769H57.8267C59.9197 18.4986 61.1653 20.1162 61.1653 22.3257L61.171 22.32ZM56.6152 22.32C56.6152 18.9889 53.0377 17.4051 48.351 17.4051C43.6644 17.4051 40.0868 18.9889 40.0868 22.32C40.0868 25.6511 43.6644 27.2349 48.351 27.2349C53.0377 27.2349 56.6152 25.6511 56.6152 22.32Z" fill="white"/>
<path d="M89.5069 13.9389H83.2334C81.7489 15.6242 79.1155 16.712 75.811 16.712C70.584 16.712 67.0747 13.9728 67.0747 10.6078C67.0747 8.95639 67.9165 7.44021 69.401 6.35239H66.432L65.2148 4.50366H73.4108V2.0293H76.9201C77.4604 2.0293 77.9325 2.49148 77.9325 3.0213V4.50366H85.4232C85.7246 4.50366 85.7928 4.86439 85.7928 5.42802C85.7928 5.99166 85.7246 6.35239 85.4232 6.35239H82.221C82.7954 6.78075 83.2675 7.27675 83.6372 7.80657H89.5069V2.85221H92.8797C93.42 2.85221 93.8921 3.31439 93.8921 3.84421V27.9284H70.9537C69.8389 27.9284 68.9289 27.0378 68.9289 25.95V17.704H72.3017C72.842 17.704 73.3141 18.1662 73.3141 18.696V20.4771H89.5069V13.9446V13.9389ZM73.3141 22.3202V25.0933C73.3141 25.6231 73.7862 26.0853 74.3265 26.0853H89.5069V22.3258H73.3141V22.3202ZM80.2303 10.6078C80.2303 8.39839 78.5126 6.35239 75.811 6.35239C73.1093 6.35239 71.3917 8.29693 71.3917 10.6078C71.3917 12.9188 73.1435 14.8633 75.811 14.8633C78.4785 14.8633 80.2303 12.9188 80.2303 10.6078ZM84.3084 12.0902H89.5012V9.64966H84.4392C84.5074 9.94839 84.5416 10.2753 84.5416 10.6078C84.5416 11.1377 84.4733 11.628 84.3027 12.0902H84.3084Z" fill="white"/>
<path d="M125.601 27.9282H121.216V2.85205H124.589C125.129 2.85205 125.601 3.31423 125.601 3.84405V10.4442H128.94C129.241 10.4442 129.309 10.805 129.309 11.3686C129.309 11.9322 129.241 12.293 128.94 12.293H125.601V27.9339V27.9282ZM109.573 12.293C109.573 18.3295 113.247 22.6864 117.837 24.5971L116.353 25.9499C112.707 24.7268 108.828 21.7621 107.378 18.4253C105.927 21.7564 102.048 24.7268 98.4025 25.9499L96.918 24.5971C101.508 22.6808 105.182 18.3295 105.182 12.293V3.1846H108.555C109.095 3.1846 109.567 3.64678 109.567 4.1766V12.293H109.573Z" fill="white"/>
<path d="M137.238 25.0931V20.0147H134.707C133.592 20.0147 132.682 19.1242 132.682 18.0363V10.7767H153.937V5.69834H133.222L132.005 3.84961H157.304C157.844 3.84961 158.316 4.31179 158.316 4.84161V12.6254H137.062V17.1796C137.062 17.7094 137.534 18.1716 138.074 18.1716H158.618C158.919 18.1716 158.988 18.5323 158.988 19.096C158.988 19.6596 158.919 20.0203 158.618 20.0203H153.761V25.0987H159.63C159.932 25.0987 160 25.4594 160 26.0231C160 26.5867 159.932 26.9474 159.63 26.9474H131.528L130.316 25.0987H137.232L137.238 25.0931ZM141.623 20.0091V25.0874H149.381V20.0091H141.623Z" fill="white"/>
</svg>
