<?xml version="1.0" encoding="UTF-8"?>
<svg id="Layer_1" xmlns="http://www.w3.org/2000/svg" version="1.1" viewBox="0 0 322.02 74.37">
  <!-- Generator: Adobe Illustrator 30.0.0, SVG Export Plug-In . SVG Version: 2.1.1 Build 123)  -->
  <defs>
    <style>
      .st0 {
        fill: #35b558;
        font-family: NongHyupM-KSCpc-EUC-H, NongHyupM;
        font-size: 58.76px;
        letter-spacing: .15em;
      }

      .st1 {
        fill: #ffc20e;
      }
    </style>
  </defs>
  <g>
    <polygon class="st1" points="32.73 29.28 21.74 8.4 32.73 13.92 43.72 8.4 32.73 29.28"/>
    <path class="st1" d="M47.21,24.75l7.5-3.18v-10.97l-13.44,5.71-7.45,14.12c5.56.54,9.9,5.24,9.9,10.94,0,6.08-4.92,10.99-10.99,10.99s-11-4.91-11-10.99c0-5.7,4.35-10.4,9.9-10.94l-7.44-14.12-13.44-5.71v10.97l7.5,3.18c-4.63,4.04-7.57,9.98-7.57,16.62,0,12.17,9.86,22.03,22.04,22.03s22.04-9.86,22.04-22.03c0-6.63-2.93-12.58-7.56-16.62Z"/>
  </g>
  <text class="st0" transform="translate(69.22 55.41)"><tspan x="0" y="0">농협사료</tspan></text>
</svg>