<svg width="160" height="31" viewBox="0 0 160 31" fill="none" xmlns="http://www.w3.org/2000/svg">
<g clip-path="url(#clip0_89_2809)">
<path d="M12.5106 11.7687L6.27515 0L12.5106 3.11127L18.7461 0L12.5106 11.7687Z" fill="#222222"/>
<path d="M20.7262 9.21569L24.9816 7.42333V1.24023L17.356 4.4586L13.1291 12.4171C16.2837 12.7215 18.7461 15.3706 18.7461 18.5833C18.7461 22.0102 15.9546 24.7777 12.5106 24.7777C9.06667 24.7777 6.2695 22.0102 6.2695 18.5833C6.2695 15.3706 8.73759 12.7215 11.8865 12.4171L7.66525 4.4586L0.0397163 1.24023V7.42333L4.29504 9.21569C1.66809 11.4928 0 14.8408 0 18.5833C0 25.4428 5.59433 31.0002 12.505 31.0002C19.4156 31.0002 25.0099 25.4428 25.0099 18.5833C25.0099 14.8464 23.3475 11.4928 20.7206 9.21569H20.7262Z" fill="#222222"/>
<path d="M61.0213 22.32C61.0213 26.9418 55.5008 29.0837 48.2327 29.0837C40.9646 29.0837 35.444 26.9418 35.444 22.32C35.444 20.1106 36.6866 18.4929 38.7745 17.3713H34.2979L33.0837 15.5226H46.0369V11.7631H37.288C36.1759 11.7631 35.2681 10.8726 35.2681 9.78475V3.18457H38.6327C39.1717 3.18457 39.6426 3.64675 39.6426 4.17657V8.92803C39.6426 9.45784 40.1135 9.92003 40.6525 9.92003H61.4809C61.7816 9.92003 61.8497 10.2808 61.8497 10.8444C61.8497 11.408 61.7816 11.7688 61.4809 11.7688H50.4114V15.5282H62.3263C62.627 15.5282 62.6951 15.8889 62.6951 16.4526C62.6951 17.0162 62.627 17.3769 62.3263 17.3769H57.6852C59.7731 18.4986 61.0157 20.1162 61.0157 22.3257L61.0213 22.32ZM56.4766 22.32C56.4766 18.9889 52.9079 17.4051 48.2327 17.4051C43.5575 17.4051 39.9887 18.9889 39.9887 22.32C39.9887 25.6511 43.5575 27.2349 48.2327 27.2349C52.9079 27.2349 56.4766 25.6511 56.4766 22.32Z" fill="#222222"/>
<path d="M89.2879 13.9389H83.0298C81.5489 15.6242 78.922 16.712 75.6255 16.712C70.4113 16.712 66.9106 13.9728 66.9106 10.6078C66.9106 8.95639 67.7503 7.44021 69.2312 6.35239H66.2695L65.0553 4.50366H73.2312V2.0293H76.7319C77.2709 2.0293 77.7418 2.49148 77.7418 3.0213V4.50366H85.2142C85.5149 4.50366 85.583 4.86439 85.583 5.42802C85.583 5.99166 85.5149 6.35239 85.2142 6.35239H82.0198C82.5929 6.78075 83.0638 7.27675 83.4326 7.80657H89.2879V2.85221H92.6525C93.1915 2.85221 93.6624 3.31439 93.6624 3.84421V27.9284H70.7801C69.6681 27.9284 68.7603 27.0378 68.7603 25.95V17.704H72.1248C72.6638 17.704 73.1347 18.1662 73.1347 18.696V20.4771H89.2879V13.9446V13.9389ZM73.1347 22.3202V25.0933C73.1347 25.6231 73.6056 26.0853 74.1447 26.0853H89.2879V22.3258H73.1347V22.3202ZM80.034 10.6078C80.034 8.39839 78.3205 6.35239 75.6255 6.35239C72.9305 6.35239 71.217 8.29693 71.217 10.6078C71.217 12.9188 72.9645 14.8633 75.6255 14.8633C78.2865 14.8633 80.034 12.9188 80.034 10.6078ZM84.1021 12.0902H89.2822V9.64966H84.2326C84.3007 9.94839 84.3347 10.2753 84.3347 10.6078C84.3347 11.1377 84.2666 11.628 84.0964 12.0902H84.1021Z" fill="#222222"/>
<path d="M125.294 27.9282H120.919V2.85205H124.284C124.823 2.85205 125.294 3.31423 125.294 3.84405V10.4442H128.624C128.925 10.4442 128.993 10.805 128.993 11.3686C128.993 11.9322 128.925 12.293 128.624 12.293H125.294V27.9339V27.9282ZM109.305 12.293C109.305 18.3295 112.97 22.6864 117.549 24.5971L116.068 25.9499C112.431 24.7268 108.562 21.7621 107.115 18.4253C105.668 21.7564 101.799 24.7268 98.1618 25.9499L96.6809 24.5971C101.26 22.6808 104.925 18.3295 104.925 12.293V3.1846H108.289C108.828 3.1846 109.299 3.64678 109.299 4.1766V12.293H109.305Z" fill="#222222"/>
<path d="M136.902 25.0931V20.0147H134.377C133.265 20.0147 132.357 19.1242 132.357 18.0363V10.7767H153.56V5.69834H132.896L131.682 3.84961H156.919C157.458 3.84961 157.929 4.31179 157.929 4.84161V12.6254H136.726V17.1796C136.726 17.7094 137.197 18.1716 137.736 18.1716H158.23C158.531 18.1716 158.599 18.5323 158.599 19.096C158.599 19.6596 158.531 20.0203 158.23 20.0203H153.384V25.0987H159.24C159.54 25.0987 159.609 25.4594 159.609 26.0231C159.609 26.5867 159.54 26.9474 159.24 26.9474H131.206L129.997 25.0987H136.896L136.902 25.0931ZM141.277 20.0091V25.0874H149.016V20.0091H141.277Z" fill="#222222"/>
</g>
<defs>
<clipPath id="clip0_89_2809">
<rect width="160" height="31" fill="white"/>
</clipPath>
</defs>
</svg>
