<?xml version="1.0" encoding="UTF-8"?>
<svg id="Layer_1" xmlns="http://www.w3.org/2000/svg" version="1.1" viewBox="0 0 282 55">
  <!-- Generator: Adobe Illustrator 30.0.0, SVG Export Plug-In . SVG Version: 2.1.1 Build 123)  -->
  <defs>
    <style>
      .st0 {
        fill: #35b558;
      }

      .st1 {
        fill: #ffc20e;
      }
    </style>
  </defs>
  <path class="st1" d="M22.05,20.88L11.06,0l10.99,5.52L33.04,0l-10.99,20.88Z"/>
  <path class="st1" d="M36.53,16.35l7.5-3.18V2.2l-13.44,5.71-7.45,14.12c5.56.54,9.9,5.24,9.9,10.94,0,6.08-4.92,10.99-10.99,10.99s-11-4.91-11-10.99c0-5.7,4.35-10.4,9.9-10.94l-7.44-14.12L.07,2.2v10.97l7.5,3.18C2.94,20.39,0,26.33,0,32.97c0,12.17,9.86,22.03,22.04,22.03s22.04-9.86,22.04-22.03c0-6.63-2.93-12.58-7.56-16.62h0Z"/>
  <path class="st0" d="M107.55,39.6c0,8.2-9.73,12-22.54,12s-22.54-3.8-22.54-12c0-3.92,2.19-6.79,5.87-8.78h-7.89l-2.14-3.28h22.83v-6.67h-15.42c-1.96,0-3.56-1.58-3.56-3.51V5.65h5.93c.95,0,1.78.82,1.78,1.76v8.43c0,.94.83,1.76,1.78,1.76h36.71c.53,0,.65.64.65,1.64s-.12,1.64-.65,1.64h-19.51v6.67h21c.53,0,.65.64.65,1.64s-.12,1.64-.65,1.64h-8.18c3.68,1.99,5.87,4.86,5.87,8.78ZM99.54,39.6c0-5.91-6.29-8.72-14.53-8.72s-14.53,2.81-14.53,8.72,6.29,8.72,14.53,8.72,14.53-2.81,14.53-8.72Z"/>
  <path class="st0" d="M157.37,24.73h-11.03c-2.61,2.99-7.24,4.92-13.05,4.92-9.19,0-15.36-4.86-15.36-10.83,0-2.93,1.48-5.62,4.09-7.55h-5.22l-2.14-3.28h14.41V3.6h6.17c.95,0,1.78.82,1.78,1.76v2.63h13.17c.53,0,.65.64.65,1.64s-.12,1.64-.65,1.64h-5.63c1.01.76,1.84,1.64,2.49,2.58h10.32V5.06h5.93c.95,0,1.78.82,1.78,1.76v42.73h-40.33c-1.96,0-3.56-1.58-3.56-3.51v-14.63h5.93c.95,0,1.78.82,1.78,1.76v3.16h28.47v-11.59ZM128.9,39.6v4.92c0,.94.83,1.76,1.78,1.76h26.69v-6.67h-28.47ZM141.06,18.82c0-3.92-3.02-7.55-7.77-7.55s-7.77,3.45-7.77,7.55,3.08,7.55,7.77,7.55,7.77-3.45,7.77-7.55ZM148.23,21.45h9.13v-4.33h-8.9c.12.53.18,1.11.18,1.7,0,.94-.12,1.81-.42,2.63Z"/>
  <path class="st0" d="M220.83,49.55h-7.71V5.06h5.93c.95,0,1.78.82,1.78,1.76v11.71h5.87c.53,0,.65.64.65,1.64s-.12,1.64-.65,1.64h-5.87v27.75ZM192.65,21.81c0,10.71,6.46,18.44,14.53,21.83l-2.61,2.4c-6.41-2.17-13.23-7.43-15.78-13.35-2.55,5.91-9.37,11.18-15.78,13.35l-2.61-2.4c8.07-3.4,14.53-11.12,14.53-21.83V5.65h5.93c.95,0,1.78.82,1.78,1.76v14.4Z"/>
  <path class="st0" d="M241.29,44.52v-9.01h-4.45c-1.96,0-3.56-1.58-3.56-3.51v-12.88h37.37v-9.01h-36.42l-2.14-3.28h44.48c.95,0,1.78.82,1.78,1.76v13.81h-37.37v8.08c0,.94.83,1.76,1.78,1.76h36.12c.53,0,.65.64.65,1.64s-.12,1.64-.65,1.64h-8.54v9.01h10.32c.53,0,.65.64.65,1.64s-.12,1.64-.65,1.64h-49.41l-2.13-3.28h12.16ZM249,35.5v9.01h13.64v-9.01h-13.64Z"/>
</svg>