<svg width="282" height="55" viewBox="0 0 282 55" fill="none" xmlns="http://www.w3.org/2000/svg">
<path d="M22.0501 20.88L11.0601 0L22.0501 5.52L33.0401 0L22.0501 20.88Z" fill="#FFC20E"/>
<path d="M36.53 16.35L44.03 13.17V2.19995L30.59 7.90995L23.14 22.03C28.7 22.57 33.04 27.2699 33.04 32.9699C33.04 39.0499 28.12 43.96 22.05 43.96C15.98 43.96 11.05 39.0499 11.05 32.9699C11.05 27.2699 15.4 22.57 20.95 22.03L13.51 7.90995L0.0699997 2.19995V13.17L7.57 16.35C2.94 20.39 0 26.3299 0 32.9699C0 45.1399 9.86 55 22.04 55C34.22 55 44.08 45.1399 44.08 32.9699C44.08 26.3399 41.15 20.39 36.52 16.35H36.53Z" fill="#FFC20E"/>
<path d="M107.548 39.6001C107.548 47.7952 97.8206 51.6001 85.0096 51.6001C72.1986 51.6001 62.4717 47.7952 62.4717 39.6001C62.4717 35.6781 64.6662 32.8099 68.3434 30.8196H60.4551L58.3199 27.5416H81.1544V20.8684H65.7337C63.7765 20.8684 62.1751 19.2879 62.1751 17.3562V5.64888H68.1062C69.0551 5.64888 69.8855 6.46839 69.8855 7.40498V15.8342C69.8855 16.7708 70.7158 17.5903 71.6648 17.5903H108.378C108.912 17.5903 109.03 18.2342 109.03 19.2294C109.03 20.2245 108.912 20.8684 108.378 20.8684H88.8648V27.5416H109.861C110.394 27.5416 110.513 28.1855 110.513 29.1806C110.513 30.1757 110.394 30.8196 109.861 30.8196H101.676C105.353 32.8099 107.548 35.6781 107.548 39.6001ZM99.5406 39.6001C99.5406 33.6879 93.2537 30.8781 85.0096 30.8781C76.7655 30.8781 70.4786 33.6879 70.4786 39.6001C70.4786 45.5123 76.7655 48.322 85.0096 48.322C93.2537 48.322 99.5406 45.5123 99.5406 39.6001Z" fill="#35B558"/>
<path d="M157.366 24.7318H146.334C143.725 27.7172 139.098 29.6489 133.286 29.6489C124.093 29.6489 117.925 24.7903 117.925 18.8196C117.925 15.8928 119.407 13.2001 122.017 11.2684H116.798L114.662 7.99034H129.075V3.6001H135.243C136.192 3.6001 137.022 4.41961 137.022 5.35619V7.99034H150.189C150.723 7.99034 150.842 8.63424 150.842 9.62936C150.842 10.6245 150.723 11.2684 150.189 11.2684H144.555C145.563 12.0294 146.394 12.9074 147.046 13.844H157.366V5.06351H163.297C164.246 5.06351 165.076 5.88302 165.076 6.81961V49.5513H124.745C122.788 49.5513 121.187 47.9708 121.187 46.0391V31.405H127.118C128.067 31.405 128.897 32.2245 128.897 33.1611V36.322H157.366V24.7318ZM128.897 39.6001V44.5172C128.897 45.4538 129.727 46.2733 130.676 46.2733H157.366V39.6001H128.897ZM141.056 18.8196C141.056 14.8977 138.031 11.2684 133.286 11.2684C128.6 11.2684 125.516 14.722 125.516 18.8196C125.516 22.9172 128.6 26.3708 133.286 26.3708C138.031 26.3708 141.056 22.9172 141.056 18.8196ZM148.232 21.4538H157.366V17.122H148.469C148.588 17.6489 148.647 18.2342 148.647 18.8196C148.647 19.7562 148.529 20.6342 148.232 21.4538Z" fill="#35B558"/>
<path d="M220.826 49.5513H213.115V5.06351H219.046C219.995 5.06351 220.826 5.88302 220.826 6.81961V18.5269H226.697C227.231 18.5269 227.35 19.1708 227.35 20.1659C227.35 21.1611 227.231 21.805 226.697 21.805H220.826V49.5513ZM192.653 21.805C192.653 32.5172 199.118 40.244 207.184 43.6391L204.575 46.0391C198.169 43.8733 191.348 38.605 188.798 32.6928C186.248 38.605 179.427 43.8733 173.022 46.0391L170.412 43.6391C178.478 40.244 184.943 32.5172 184.943 21.805V5.64888H190.874C191.823 5.64888 192.653 6.46839 192.653 7.40498V21.805Z" fill="#35B558"/>
<path d="M241.285 44.5172V35.5025H236.837C234.88 35.5025 233.279 33.922 233.279 31.9903V19.1123H270.644V10.0977H234.228L232.092 6.81961H276.575C277.524 6.81961 278.354 7.63912 278.354 8.57571V22.3903H240.989V30.4684C240.989 31.405 241.819 32.2245 242.768 32.2245H278.888C279.422 32.2245 279.541 32.8684 279.541 33.8635C279.541 34.8586 279.422 35.5025 278.888 35.5025H270.348V44.5172H280.668C281.201 44.5172 281.32 45.1611 281.32 46.1562C281.32 47.1513 281.201 47.7952 280.668 47.7952H231.262L229.127 44.5172H241.285ZM248.996 35.5025V44.5172H262.637V35.5025H248.996Z" fill="#35B558"/>
</svg>
