<svg width="21" height="14" viewBox="0 0 21 14" fill="none" xmlns="http://www.w3.org/2000/svg">
<path d="M0 6.8166C0 6.27638 0.191299 5.81777 0.573896 5.44077C0.956674 5.06359 1.41817 4.875 1.9584 4.875H2.16667V1.9584C2.16667 1.41817 2.35797 0.956764 2.74056 0.574167C3.12334 0.191389 3.58484 0 4.12506 0H16.4583C16.9985 0 17.46 0.191389 17.8428 0.574167C18.2254 0.956764 18.4167 1.41817 18.4167 1.9584V4.875H18.6249C19.1652 4.875 19.6267 5.0663 20.0094 5.4489C20.392 5.83167 20.5833 6.29317 20.5833 6.8334V10.1833C20.5833 10.5152 20.4677 10.7968 20.2364 11.0281C20.0051 11.2594 19.7235 11.375 19.3917 11.375L18.9104 13.2521C18.8811 13.3395 18.8319 13.4097 18.7625 13.4626C18.693 13.5153 18.6146 13.5417 18.5272 13.5417H18.3062C18.2188 13.5417 18.1403 13.5153 18.0708 13.4626C18.0015 13.4097 17.9522 13.3395 17.9229 13.2521L17.4417 11.375H3.14167L2.6604 13.2521C2.63115 13.3395 2.58185 13.4097 2.51252 13.4626C2.44301 13.5153 2.36456 13.5417 2.27717 13.5417H2.05617C1.96878 13.5417 1.89033 13.5153 1.82081 13.4626C1.75148 13.4097 1.70219 13.3395 1.67294 13.2521L1.19167 11.375C0.859806 11.375 0.578229 11.2594 0.346937 11.0281C0.115646 10.7968 0 10.5152 0 10.1833V6.8166ZM11.1042 4.875H16.7917V1.9584C16.7917 1.86126 16.7604 1.78136 16.698 1.71871C16.6355 1.65624 16.5556 1.625 16.4583 1.625H11.1042V4.875ZM3.79167 4.875H9.47917V1.625H4.12506C4.02774 1.625 3.94785 1.65624 3.88538 1.71871C3.8229 1.78136 3.79167 1.86126 3.79167 1.9584V4.875ZM1.625 9.75H18.9583V6.8334C18.9583 6.73608 18.9271 6.65618 18.8646 6.59371C18.8022 6.53124 18.7223 6.5 18.6249 6.5H1.9584C1.86108 6.5 1.78118 6.53124 1.71871 6.59371C1.65624 6.65618 1.625 6.73608 1.625 6.8334V9.75Z" fill="#1D1D1D" fill-opacity="0.8"/>
</svg>
