<svg width="38" height="34" viewBox="0 0 38 34" fill="none" xmlns="http://www.w3.org/2000/svg">
<path d="M3.02906 33.75C2.16594 33.75 1.44531 33.4609 0.867188 32.8828C0.289063 32.3047 0 31.5841 0 30.7209V10.5291C0 9.66594 0.289063 8.94531 0.867188 8.36719C1.44531 7.78906 2.16594 7.5 3.02906 7.5H8.57438L11.1347 4.71656C11.4113 4.41906 11.7444 4.18359 12.1341 4.01016C12.5234 3.83672 12.9319 3.75 13.3594 3.75H20.8416C21.1072 3.75 21.3298 3.84 21.5095 4.02C21.6892 4.2 21.7791 4.42297 21.7791 4.68891C21.7791 4.95485 21.6892 5.17734 21.5095 5.35641C21.3298 5.53547 21.1072 5.625 20.8416 5.625H12.8545L9.39656 9.375H3.02906C2.6925 9.375 2.41594 9.48312 2.19937 9.69937C1.98312 9.91594 1.875 10.1925 1.875 10.5291V30.7209C1.875 31.0575 1.98312 31.3341 2.19937 31.5506C2.41594 31.7669 2.6925 31.875 3.02906 31.875H30.7209C31.0575 31.875 31.3341 31.7669 31.5506 31.5506C31.7669 31.3341 31.875 31.0575 31.875 30.7209V16.6584C31.875 16.3928 31.965 16.1702 32.145 15.9905C32.325 15.8108 32.548 15.7209 32.8139 15.7209C33.0798 15.7209 33.3023 15.8108 33.4814 15.9905C33.6605 16.1702 33.75 16.3928 33.75 16.6584V30.7209C33.75 31.5841 33.4609 32.3047 32.8828 32.8828C32.3047 33.4609 31.5841 33.75 30.7209 33.75H3.02906ZM31.875 5.625H29.0625C28.7969 5.625 28.5742 5.535 28.3945 5.355C28.2148 5.175 28.125 4.95203 28.125 4.68609C28.125 4.42015 28.2148 4.19766 28.3945 4.01859C28.5742 3.83953 28.7969 3.75 29.0625 3.75H31.875V0.9375C31.875 0.671875 31.965 0.449219 32.145 0.269531C32.325 0.0898437 32.548 0 32.8139 0C33.0798 0 33.3023 0.0898437 33.4814 0.269531C33.6605 0.449219 33.75 0.671875 33.75 0.9375V3.75H36.5625C36.8281 3.75 37.0508 3.84 37.2305 4.02C37.4102 4.2 37.5 4.42297 37.5 4.68891C37.5 4.95485 37.4102 5.17734 37.2305 5.35641C37.0508 5.53547 36.8281 5.625 36.5625 5.625H33.75V8.4375C33.75 8.70312 33.66 8.92578 33.48 9.10547C33.3 9.28516 33.077 9.375 32.8111 9.375C32.5452 9.375 32.3227 9.28516 32.1436 9.10547C31.9645 8.92578 31.875 8.70312 31.875 8.4375V5.625ZM16.875 27.6202C18.8341 27.6202 20.4897 26.9441 21.8419 25.5919C23.1941 24.2397 23.8702 22.5841 23.8702 20.625C23.8702 18.6659 23.1941 17.0103 21.8419 15.6581C20.4897 14.3059 18.8341 13.6298 16.875 13.6298C14.9159 13.6298 13.2603 14.3059 11.9081 15.6581C10.5559 17.0103 9.87984 18.6659 9.87984 20.625C9.87984 22.5841 10.5559 24.2397 11.9081 25.5919C13.2603 26.9441 14.9159 27.6202 16.875 27.6202ZM16.875 25.7452C15.4181 25.7452 14.2006 25.2559 13.2225 24.2775C12.2441 23.2994 11.7548 22.0819 11.7548 20.625C11.7548 19.1681 12.2441 17.9506 13.2225 16.9725C14.2006 15.9941 15.4181 15.5048 16.875 15.5048C18.3319 15.5048 19.5494 15.9941 20.5275 16.9725C21.5059 17.9506 21.9952 19.1681 21.9952 20.625C21.9952 22.0819 21.5059 23.2994 20.5275 24.2775C19.5494 25.2559 18.3319 25.7452 16.875 25.7452Z" fill="white"/>
</svg>
