<svg width="126" height="33" viewBox="0 0 126 33" fill="none" xmlns="http://www.w3.org/2000/svg">
<g clip-path="url(#clip0_115_91)">
<path d="M62.5908 17.2837V20.9875L58.5002 20.9889C66.9055 30.3283 53.567 33.518 46.0058 32.932C39.103 32.3978 31.5731 27.5938 38.4545 20.9889H33.9526L33.9541 17.2822H62.5908V17.2837ZM41.8695 27.4244C44.6903 30.2522 56.3378 29.9807 56.0407 25.3348C55.7222 20.3455 40.4312 20.5868 40.9111 25.6895C40.9554 26.1649 41.5196 27.0739 41.8695 27.4244Z" fill="#2E008B"/>
<path d="M121.09 11.9355L116.583 12.1352C113.731 20.2969 97.6289 19.3906 97.3261 10.5008C97.0062 1.11698 113.535 -0.389546 116.453 8.25181L121.09 8.23457V2.47559H125.999V17.696H121.09V11.937V11.9355ZM110.315 7.13879C106.638 3.51824 100.107 8.34228 103.302 12.7498C106.696 17.4303 114.922 11.6756 110.315 7.13879Z" fill="#2E008B"/>
<path d="M45.8172 2.88667L46.0528 0L51.1374 0.00574463V2.88667H62.1808V6.59052L58.9115 6.17691C59.5999 8.45752 60.8925 9.41688 59.4871 11.9029C56.1621 17.7839 41.2967 17.7681 37.6332 12.1441C36.0507 9.71416 37.3633 8.54369 38.0403 6.17691L34.7695 6.59052V2.88667H45.8172ZM54.2882 11.4088C58.593 6.17978 42.7892 4.50091 42.1265 9.28475C41.4895 13.8891 52.2386 13.8977 54.2882 11.4088Z" fill="#2E008B"/>
<path d="M101.454 19.751L106.173 19.3934L106.763 19.965L106.534 21.8263C106.898 22.3347 107.66 22.1968 108.184 22.2385C110.602 22.4338 117.942 22.6133 120.068 22.2184C120.534 22.1322 120.897 22.0762 121.034 21.5448L121.094 19.3389L125.999 19.7496V31.2676H102.885C102.731 31.2676 101.454 30.3326 101.454 30.2393V19.7496V19.751ZM121.09 27.5666L120.475 25.51H106.976C106.206 25.51 106.206 27.5666 106.976 27.5666H121.09Z" fill="#2E008B"/>
<path d="M20.4542 2.88672V6.58913H13.0901C13.7599 11.1001 15.2653 15.4517 20.0443 16.8792C18.4446 23.2844 11.9474 16.3909 10.6306 13.1739C9.79791 13.6924 9.5751 14.847 8.79098 15.634C7.83976 16.5891 3.40786 19.7659 2.23954 19.7429C1.26403 19.7228 -0.0214038 17.8515 2.01659e-05 16.8792C4.50619 15.5723 7.4727 11.215 7.77263 6.58913H0.408504V2.88672H20.4542Z" fill="#2E008B"/>
<path d="M81.6139 2.88666C81.951 2.93693 82.5066 3.33475 82.9322 3.40943C85.0517 5.33962 81.1897 14.9375 79.9857 17.2913C78.7588 19.6926 73.3471 27.3832 70.8762 27.9074C69.9821 28.097 66.4886 25.7919 66.6828 25.5162C72.7244 21.4002 77.7733 14.1074 78.1375 6.58764H67.5012V2.88523C71.8546 3.3448 77.4191 2.26481 81.6153 2.88523L81.6139 2.88666Z" fill="#2E008B"/>
<path d="M92.4544 2.47559H87.5454V31.2705H92.4544V2.47559Z" fill="#2E008B"/>
<path d="M8.59107 21.8081V27.9778H28.2268V31.268H4.29485C4.22201 31.268 3.27222 30.313 3.27222 30.2398V21.8066H8.59107V21.8081Z" fill="#2E008B"/>
<path d="M28.2268 2.47559V22.632C26.53 22.3951 24.2091 23.251 22.908 22.0145V2.47559H28.2268Z" fill="#2E008B"/>
</g>
<defs>
<clipPath id="clip0_115_91">
<rect width="126" height="33" fill="white"/>
</clipPath>
</defs>
</svg>
