<svg width="29" height="28" viewBox="0 0 29 28" fill="none" xmlns="http://www.w3.org/2000/svg">
<path d="M28.4096 13.7306C28.4096 14.0142 28.1898 14.0142 27.4273 14.2333C27.1041 14.3236 26.949 14.8392 26.6905 15.6254C26.1477 17.3011 24.4028 20.0079 20.7708 20.0079C17.1388 20.0079 15.2388 16.9273 15.1095 16.7726C14.9157 16.5148 14.6313 16.2957 14.3728 16.2957C14.2177 16.2957 14.0885 16.3601 13.998 16.4246C12.6925 17.314 11.2578 18.3323 11.2578 20.6395C11.2578 22.1605 12.5245 23.9135 14.6959 23.9135C16.5442 23.9135 17.7463 22.1734 18.134 20.9618C18.2633 20.5493 18.2245 20.3946 18.4572 20.3946C18.7415 20.3946 18.8449 21.0262 19.2198 21.0262C19.5429 21.0262 19.4395 20.8715 19.8531 20.8715C20.2408 20.8715 20.3313 21.3742 20.6545 21.3742C21.1068 21.3742 21.7014 20.9875 21.9858 20.9875C22.0762 20.9875 22.2443 20.9875 22.2443 21.0778C22.2443 21.2324 21.9599 21.4 21.7014 21.6191C21.1585 22.096 20.7449 22.3796 20.3313 23.0757C18.8708 25.5505 17.1776 26.0016 16.3245 26.2465C16.0014 26.3368 15.6912 26.5043 15.5619 26.7879C15.0837 27.8706 14.7993 27.9995 14.6701 27.9995C14.515 27.9995 14.4504 27.8062 14.4116 27.3937C14.3728 26.9555 14.1272 26.4399 13.2612 26.2852C11.064 25.8727 8.3626 23.6557 8.3626 20.1626C8.3626 17.0175 10.7538 15.7801 11.9558 14.5814C12.1109 14.4267 12.2402 14.2333 12.2402 13.9498V13.8595C12.2402 13.7049 12.2014 13.5115 12.0204 13.2537C10.8055 11.7327 9.88777 10.7145 8.23335 10.7145C6.42382 10.7145 4.83402 12.2097 4.83402 14.3622C4.83402 16.6824 5.98436 17.4687 7.12178 17.7651C7.49661 17.8553 7.62586 17.894 7.62586 18.0229C7.62586 18.2807 7.36736 18.2163 7.36736 18.5901C7.36736 18.8736 7.58709 18.8478 7.58709 19.2861C7.58709 19.6083 7.30273 19.6986 7.30273 20.1755C7.30273 20.5622 7.49661 20.6782 7.49661 20.9102C7.49661 21.1938 7.65171 21.168 7.65171 21.7609C7.65171 21.9156 7.71634 22.0445 7.58709 22.0445C7.45784 22.0445 7.30273 21.8254 7.10886 21.5418C6.65647 20.8715 6.19117 20.4591 5.82926 20.2142C3.06327 18.2163 2.95987 17.3269 2.26191 15.9606C2.10681 15.6383 2.04218 15.1098 1.71905 14.9423C0.69796 14.4396 0 14.272 0 13.4471C0 13.0604 0.452382 13.4471 1.15034 13.4471C1.5381 13.4471 1.97755 13.5115 2.19728 12.7124C2.67551 11.0238 4.67892 8.32986 8.18165 8.32986C11.9041 8.32986 13.7524 11.4105 13.8817 11.5652C14.1402 11.9132 14.3599 12.0421 14.6184 12.0421C14.7735 12.0421 14.9027 12.0421 15.1871 11.7843C17.5395 9.68328 17.7334 8.76811 17.7334 7.56937C17.7334 6.04839 16.5184 4.26961 14.3599 4.26961C12.2014 4.26961 11.1803 5.98394 10.8959 7.24713C10.8055 7.6596 10.7408 7.87873 10.547 7.87873C10.2626 7.87873 10.2626 7.49204 9.93947 7.49204C9.43539 7.49204 9.37076 7.71116 9.11226 7.71116C8.76328 7.71116 8.76328 7.07957 8.24627 7.07957C8.11702 7.07957 7.83267 7.23424 7.63879 7.23424C7.16056 7.23424 7.1347 7.32447 6.90205 7.32447C6.64355 7.32447 6.39797 7.19557 6.39797 7.00223C6.39797 6.80888 6.55307 6.67999 7.07008 6.43508C7.74219 6.08706 8.34967 5.82927 8.65988 5.13322C9.64219 2.94198 11.8136 2.24593 12.6408 1.92369C12.964 1.79479 13.1191 1.6659 13.2742 1.38233C13.9463 0.170695 14.2306 0.0546875 14.4245 0.0546875C14.6184 0.0546875 14.5796 0.37693 14.683 0.75073C14.7735 1.18898 14.7735 1.54989 15.5102 1.73035C17.5783 2.27171 20.6286 4.17939 20.6286 7.6596C20.6286 11.1398 17.1905 13.344 17.0354 13.4728C16.6476 13.7564 16.5313 13.9755 16.5313 14.2076C16.5313 14.3622 16.6218 14.5556 16.7252 14.7489C17.5524 16.3988 18.9871 17.4815 20.6415 17.4815C22.6191 17.4815 24.1443 15.6383 24.1443 13.7435C24.1443 11.8487 22.8776 10.7016 21.7531 10.3535C21.3395 10.2246 21.1456 10.2246 21.1456 10.0055C21.1456 9.74773 21.43 9.85085 21.43 9.46416C21.43 9.18058 21.3007 9.24503 21.3007 8.79389C21.3007 8.47165 21.6885 8.38142 21.6885 7.9045C21.6885 7.51781 21.4946 7.40181 21.4946 7.16979C21.4946 6.88622 21.4041 6.912 21.4041 6.30618C21.4041 6.15151 21.3395 6.02261 21.4687 6.02261C21.6238 6.02261 21.7919 6.24174 21.9728 6.52531C22.4123 7.19557 22.7742 7.69827 23.1232 7.91739C25.6436 9.50283 26.1735 10.5211 26.7551 11.9519C26.8844 12.2741 27.0137 12.8026 27.3885 13.0346C27.7116 13.2279 28.4096 13.4471 28.4096 13.7049" fill="#231815"/>
</svg>
