<svg width="141" height="35" viewBox="0 0 141 35" fill="none" xmlns="http://www.w3.org/2000/svg">
<g clip-path="url(#clip0_34_475)">
<path d="M118.301 8.89513C118.301 9.2059 118.349 9.5284 118.474 9.82744C119.026 11.1819 120.434 12.0146 122.223 11.3051C122.651 11.135 134.493 6.42654 134.493 6.42654C134.493 6.42654 129.829 18.0952 129.651 18.5291C128.973 20.2061 129.787 21.713 131.172 22.2232C131.481 22.3346 131.802 22.3873 132.117 22.3873C133.252 22.3873 134.25 21.7247 134.743 20.4054C134.814 20.2061 140.649 4.40359 140.78 4.02245C140.857 3.79963 140.988 3.26604 140.994 2.9025C140.994 2.11677 140.703 1.38382 140.138 0.826772C139.58 0.281454 138.843 0 138.059 0C137.678 0 137.369 0.0644999 136.9 0.216954C136.621 0.304909 121.587 5.82845 120.298 6.29754C119.008 6.77249 118.301 7.78104 118.301 8.90099" fill="#ED1C24"/>
<path d="M71.6142 29.6522V27.8404C73.5751 27.3361 75.0072 25.8115 75.0072 24.0055C75.0072 22.8621 74.4308 21.836 73.5157 21.103H75.5182V19.039H71.6974V17.0396H68.7204V19.039H64.8105V21.103H66.9021C65.9871 21.836 65.4107 22.8621 65.4107 24.0055C65.4107 25.7588 66.7655 27.2423 68.6432 27.7876V29.6464H64.1807V31.769H74.3535C75.227 31.769 76.1896 31.64 76.1956 31.6341V29.5643C76.1956 29.5643 75.4825 29.6464 74.5972 29.6464H71.6202L71.6142 29.6522ZM70.2059 21.7539C71.2993 21.7539 72.1847 22.739 72.1847 23.9528C72.1847 25.1665 71.2934 26.1516 70.2059 26.1516C69.1185 26.1516 68.2272 25.1665 68.2272 23.9528C68.2272 22.739 69.1185 21.7539 70.2059 21.7539Z" fill="#454B52"/>
<path d="M79.8559 17.5088H76.8789V34.9941H79.8559V24.9439H82.7854V22.8271H79.8559V17.5088Z" fill="#454B52"/>
<path d="M115.93 26.8262C116.804 26.8262 117.761 26.6972 117.773 26.6972V24.6273C117.773 24.6273 117.059 24.7094 116.168 24.7094H111.551C110.862 24.6977 110.517 24.3986 110.505 23.7947V20.1768H116.346V18.0542H107.493V24.3224C107.493 25.888 108.907 26.8262 110.268 26.8262H115.925H115.93Z" fill="#454B52"/>
<path d="M39.1048 30.8895H31.5287V28.7434C34.0006 28.2098 35.8367 26.3803 35.8367 24.2108C35.8367 23.0439 35.3078 21.9767 34.4344 21.1558H37.5955V19.0332H31.5346V17.0278H28.5576V19.0332H22.4967V21.1558H25.6579C24.7844 21.9767 24.2555 23.0439 24.2555 24.2108C24.2555 26.3803 26.0857 28.2098 28.5576 28.7434V30.8895H20.9814V33.0121H39.1048V30.8895ZM27.3157 24.1463C27.3157 22.698 28.5398 21.5194 30.0431 21.5194C31.5465 21.5194 32.7706 22.698 32.7706 24.1463C32.7706 25.5946 31.5465 26.7732 30.0431 26.7732C28.5398 26.7732 27.3157 25.5946 27.3157 24.1463Z" fill="#454B52"/>
<path d="M5.61537 34.9824H14.8316V28.333C14.8316 27.9695 14.5345 27.6763 14.172 27.6763H2.83447V32.4786C2.83447 33.9269 4.00507 34.9765 5.60943 34.9765M5.81146 29.8048H11.8546V32.8656H6.85727C6.13234 32.8656 5.82335 32.5841 5.81146 31.9626V29.8048Z" fill="#454B52"/>
<path d="M18.1234 23.9002H14.4155C14.5938 23.2376 15.0335 21.1853 15.0335 17.5968V17.4971H2.67394V19.6197H11.9139C11.9139 19.7604 11.9139 19.9363 11.9139 20.1064C11.9139 22.0824 11.8129 23.3783 11.7594 23.9002H0V26.0228H18.1234V23.9002Z" fill="#454B52"/>
<path d="M48.7846 31.9625V29.1362H45.772V32.4902C45.772 34.0558 47.1862 34.994 48.5469 34.994H58.1137V32.8772H49.8304C49.1411 32.8655 48.7965 32.5665 48.7846 31.9625Z" fill="#454B52"/>
<path d="M43.1396 27.8814H51.0723V31.1709H54.0493V27.8814H61.263V25.7588H43.1396V27.8814Z" fill="#454B52"/>
<path d="M48.838 24.4806H58.0542V17.5146H46.0571V21.9827C46.0571 23.4311 47.2277 24.4806 48.838 24.4806ZM49.0401 19.6314H55.0832V22.358H50.0859C49.3609 22.358 49.0519 22.0766 49.0401 21.455V19.6314Z" fill="#454B52"/>
<path d="M113.114 31.9743V28.3857H110.137V32.502C110.137 33.9503 111.307 34.9999 112.918 34.9999H122.086V32.8831H114.16C113.435 32.8831 113.126 32.6017 113.114 31.9743Z" fill="#454B52"/>
<path d="M122.045 17.4971H119.127V28.638H122.045V23.2082H124.968V21.0856H122.045V17.4971Z" fill="#454B52"/>
<path d="M99.7141 22.7978H98.5613V17.5088H95.8042V34.9941H98.5613V24.9673H99.7141V34.9941H102.471V17.5088H99.7141V22.7978Z" fill="#454B52"/>
<path d="M91.5972 20.2296H94.6931V18.1069H85.9285V20.2296H88.8817L85.5957 29.7814H88.4241L90.2127 24.3869C92.031 26.3277 92.4648 29.7814 92.4648 29.7814H94.9902C94.9902 29.7814 94.8594 25.2371 91.1634 21.5137L91.5913 20.2237L91.5972 20.2296Z" fill="#454B52"/>
</g>
<defs>
<clipPath id="clip0_34_475">
<rect width="141" height="35" fill="white"/>
</clipPath>
</defs>
</svg>
