<?xml version="1.0" encoding="UTF-8"?>
<svg id="Layer_1" xmlns="http://www.w3.org/2000/svg" version="1.1" viewBox="0 0 126 48">
  <!-- Generator: Adobe Illustrator 30.0.0, SVG Export Plug-In . SVG Version: 2.1.1 Build 123)  -->
  <defs>
    <style>
      .st0 {
        fill: none;
      }

      .st1 {
        fill: #231f20;
        isolation: isolate;
        opacity: .1;
      }

      .st2 {
        fill: #ed1c24;
      }
    </style>
  </defs>
  <path class="st2" d="M12.17,33.89c-1.6,0-3.1-.27-4.51-.81-1.41-.54-3.07-1.35-4.16-2.44-1.09-1.09-1.94-2.44-2.56-4.04-.62-1.6-.93-3.47-.93-5.58s.32-3.95.96-5.58c.64-1.63,1.52-3,2.63-4.13,1.11-1.12,2.79-1.98,4.23-2.56.43-.17,1.19-.4,1.69-.5,1.33-.27,1.73-.37,2.86-.37,1.64,0,3.1.32,4.4.98,1.29.65,2.36,1.41,3.22,2.29l-3.13,3.84c-.63-.58-1.29-1.05-1.99-1.41-.7-.36-1.5-.54-2.39-.54-1.08,0-2.88.31-3.77.93-.9.62-1.61,1.5-2.14,2.66-.53,1.16-.79,2.55-.79,4.19s.24,3.08.73,4.26c.48,1.18,1.57,2.08,2.44,2.7.88.62,1.9.93,3.06.93,1.01,0,2.32-.22,3.12-.67.8-.45,1.49-.99,2.07-1.62l3.17,3.77c-1.06,1.24-2.27,2.16-3.66,2.78-1.38.62-2.89.93-4.53.93h0Z"/>
  <path class="st2" d="M26.42,33.41V10.35c0-.22-.07-.44-.2-.62l-1.01-1.41h6.03v25.1h-4.81Z"/>
  <path class="st2" d="M43.21,15.9c.19,1.63.29,7.66.29,9.19v8.32h-5.32V10.57l-1.22-2.25h7.35l6.23,12.02,2.46,5.56M52.64,25.05c-.19-1.67-.29-6.91-.29-8.41v-8.32h5.32v25.1h-5.73l-6.2-12.09-3.27-6.3"/>
  <path class="st2" d="M65.09,33.41V10.73l-1.22-2.41h19.14v4.61h-12.3v5.86h9.6v3.43h-9.6v6.54h12.27v4.65h-17.89Z"/>
  <g>
    <rect class="st0" x="92.62" y="9.3" width="0" height="5.61" transform="translate(7.82 51.27) rotate(-32.23)"/>
    <polygon class="st0" points="102.39 36.96 102.4 36.94 102.39 36.96 102.39 36.96"/>
    <polygon class="st0" points="111 30.95 111 30.95 111.02 30.96 111 30.95"/>
    <rect class="st0" x="111" y="33.22" width="3.2" height="0"/>
    <polygon class="st2" points="125.21 38.92 125.16 38.99 125.21 38.93 125.21 38.92"/>
    <path class="st2" d="M114.83,33.49h0s.02,0,.02,0l.39-.27h0s0,0,0,0l5.53-3.88V5.99h-9.77s9.75,0,9.75,0l.02-.05-12.98-5.34,2.37,3.76h0s-2.37-3.76-2.37-3.76l-1.46-.6-4.9,3.08-.96,2.32.95-2.32-10.37,6.54.06.1h-.06v23.39l3.48-9.13,6.5,2.48V10.11h0v-.39h0v-1.34l1.66.68-3.19-1.31h0s3.19,1.31,3.19,1.31h0s8.3,3.41,8.3,3.41h0v17.78l4.68,1.78h0s-4.68-1.78-4.68-1.78h0s-2.43-.93-2.43-.93l-.91-.33v-.02s-6.62-2.53-6.62-2.53v6.76h0v-6.75l-6.5-2.48-3.48,9.13.28.11h.01l12.72,4.85h.02s0,.02,0,.02l5.76,3.29.56-.88,4.42-7.01ZM94.12,14.48l-2.99-4.75h0l2.99,4.75h0ZM111,30.95h.02s-.02,0-.02,0h0ZM111,33.22h3.2s-3.2,0-3.2,0h0ZM102.39,36.96h0s.01-.02.01-.02v.02Z"/>
    <polygon class="st1" points="109.85 41.38 109.84 41.39 119.97 47.2 125.16 38.99 119.8 47.07 109.85 41.38"/>
    <polygon class="st1" points="115.08 33.65 115.08 33.65 125.21 38.92 125.21 38.92 114.85 33.49 114.84 33.5 115.08 33.65"/>
    <polygon class="st1" points="112.2 41.18 113.5 37.78 112.2 41.18 112.2 41.18"/>
    <path class="st2" d="M115.08,33.65h0s-.23-.15-.23-.15h0s-.02-.01-.02-.01h0s-4.42,7.01-4.42,7.01l-.56.88,9.95,5.69,5.36-8.07.04-.07-10.13-5.27ZM112.2,41.18h0s1.3-3.4,1.3-3.4l-1.3,3.4Z"/>
    <path class="st1" d="M115.08,33.65h0s-.23-.15-.23-.15h0s-.02-.01-.02-.01h0s-4.42,7.01-4.42,7.01l-.56.88,9.95,5.69,5.36-8.07.04-.07-10.13-5.27ZM112.2,41.18h0s1.3-3.4,1.3-3.4l-1.3,3.4Z"/>
  </g>
</svg>