<svg width="33" height="34" viewBox="0 0 33 34" fill="none" xmlns="http://www.w3.org/2000/svg">
<path d="M4.82558e-05 13.7521C4.82558e-05 14.1984 0.0644426 14.6606 0.241401 15.083C1.03704 17.0277 3.04661 18.2232 5.59518 17.211C6.21385 16.964 23.1352 10.2134 23.1352 10.2134C23.1352 10.2134 16.4711 26.9583 16.2221 27.5879C15.2495 29.9869 16.4149 32.1627 18.4006 32.8959C18.8427 33.0474 19.293 33.135 19.751 33.1271C21.3589 33.1271 22.7894 32.1786 23.4891 30.2898C23.6017 30.0028 31.9296 7.32029 32.1146 6.77038C32.2191 6.45156 32.4118 5.69442 32.4199 5.16841C32.4199 4.04464 32.0021 2.98464 31.1979 2.19561C30.3941 1.39861 29.3409 0.992145 28.2238 1.00011C27.6853 1.00011 27.2431 1.09575 26.5677 1.30297C26.166 1.43049 4.68652 9.36062 2.8458 10.0381C1.00507 10.7155 -0.00805671 12.166 4.82558e-05 13.768" fill="#ED1C24"/>
</svg>
