<svg width="12" height="12" viewBox="0 0 12 12" fill="none" xmlns="http://www.w3.org/2000/svg">
<path d="M5.6665 11.3333C5.52472 11.3333 5.406 11.2854 5.31033 11.1895C5.21456 11.0937 5.16667 10.975 5.16667 10.8333V6.16667H0.5C0.358333 6.16667 0.239611 6.11872 0.143833 6.02283C0.0479445 5.92694 0 5.80817 0 5.6665C0 5.52472 0.0479445 5.406 0.143833 5.31033C0.239611 5.21456 0.358333 5.16667 0.5 5.16667H5.16667V0.5C5.16667 0.358333 5.21461 0.239611 5.3105 0.143833C5.40639 0.0479445 5.52517 0 5.66683 0C5.80861 0 5.92733 0.0479445 6.023 0.143833C6.11878 0.239611 6.16667 0.358333 6.16667 0.5V5.16667H10.8333C10.975 5.16667 11.0937 5.21461 11.1895 5.3105C11.2854 5.40639 11.3333 5.52517 11.3333 5.66683C11.3333 5.80861 11.2854 5.92733 11.1895 6.023C11.0937 6.11878 10.975 6.16667 10.8333 6.16667H6.16667V10.8333C6.16667 10.975 6.11872 11.0937 6.02283 11.1895C5.92694 11.2854 5.80817 11.3333 5.6665 11.3333Z" fill="#3D3D3D"/>
</svg>
