<svg width="24" height="21" viewBox="0 0 24 21" fill="none" xmlns="http://www.w3.org/2000/svg">
<path d="M3.37485 20.4915C2.84023 20.4915 2.41177 20.2762 2.08948 19.8456C1.76737 19.4151 1.66463 18.927 1.78127 18.3812C2.02159 17.3562 2.18481 16.3276 2.27094 15.2956C2.35706 14.2637 2.41258 13.2249 2.4375 12.1791C1.67646 11.9178 1.0799 11.4556 0.647833 10.7924C0.215944 10.1293 0 9.39006 0 8.57485V8.04565C0 7.69284 0.101021 7.37443 0.303062 7.09042C0.505285 6.8064 0.773681 6.59705 1.10825 6.46235C2.89304 5.76938 4.56977 4.8982 6.13844 3.84881C7.70728 2.7996 9.20626 1.64089 10.6354 0.372667C10.7854 0.245014 10.9437 0.150944 11.1104 0.0904574C11.277 0.0301519 11.4555 0 11.6458 0C11.8361 0 12.0146 0.0301519 12.1813 0.0904574C12.3479 0.150944 12.5063 0.245014 12.6563 0.372667C14.0854 1.64089 15.5844 2.7996 17.1532 3.84881C18.7219 4.8982 20.3986 5.76938 22.1834 6.46235C22.518 6.59705 22.7864 6.8064 22.9886 7.09042C23.1906 7.37443 23.2917 7.69284 23.2917 8.04565V8.57485C23.2917 9.39006 23.0757 10.1293 22.6438 10.7924C22.2118 11.4556 21.6152 11.9178 20.8542 12.1791C20.8791 13.2249 20.9346 14.2637 21.0207 15.2956C21.1069 16.3276 21.2701 17.3562 21.5104 18.3812C21.627 18.927 21.5243 19.4151 21.2022 19.8456C20.8799 20.2762 20.4514 20.4915 19.9168 20.4915H3.37485ZM3.87075 6.94985H19.4209C17.9931 6.25399 16.6358 5.46063 15.3489 4.56977C14.0621 3.67873 12.8277 2.704 11.6458 1.64558C10.4639 2.704 9.22955 3.67873 7.94273 4.56977C6.65591 5.46063 5.29858 6.25399 3.87075 6.94985ZM14.3542 10.7415C14.9097 10.7415 15.3646 10.5262 15.7189 10.0956C16.073 9.66514 16.25 9.15823 16.25 8.57485H12.4583C12.4583 9.15823 12.6354 9.66514 12.9894 10.0956C13.3437 10.5262 13.7986 10.7415 14.3542 10.7415ZM8.9375 10.7415C9.49307 10.7415 9.94798 10.5262 10.3022 10.0956C10.6563 9.66514 10.8333 9.15823 10.8333 8.57485H7.04167C7.04167 9.15823 7.2187 9.66514 7.57277 10.0956C7.92702 10.5262 8.38193 10.7415 8.9375 10.7415ZM3.52083 10.7415C4.0764 10.7415 4.53131 10.5262 4.88556 10.0956C5.23963 9.66514 5.41667 9.15823 5.41667 8.57485H1.625C1.625 9.15823 1.80203 9.66514 2.1561 10.0956C2.51035 10.5262 2.96526 10.7415 3.52083 10.7415ZM3.32908 18.8665H6.82094C6.99734 17.7137 7.1324 16.5682 7.2261 15.4302C7.31981 14.292 7.39032 13.143 7.43762 11.9833C7.18755 11.8721 6.9615 11.7303 6.75946 11.5581C6.55724 11.3858 6.38047 11.1859 6.22917 10.9582C5.98325 11.3151 5.67179 11.6134 5.29479 11.853C4.91761 12.0926 4.50685 12.2471 4.0625 12.3164C4.02639 13.429 3.95967 14.5298 3.86235 15.6187C3.76522 16.7076 3.58746 17.7902 3.32908 18.8665ZM8.46246 18.8665H14.8292C14.664 17.7832 14.5372 16.7016 14.449 15.6217C14.3608 14.5418 14.2931 13.4511 14.2458 12.3497C13.7112 12.3485 13.214 12.22 12.7541 11.9643C12.2944 11.7088 11.925 11.3652 11.6458 10.9333C11.3667 11.3652 10.9973 11.7088 10.5376 11.9643C10.0777 12.22 9.58046 12.3485 9.04583 12.3497C8.99853 13.4511 8.93082 14.5418 8.84271 15.6217C8.75442 16.7016 8.62767 17.7832 8.46246 18.8665ZM16.4707 18.8665H19.9626C19.7042 17.7902 19.5265 16.7076 19.4293 15.6187C19.332 14.5298 19.2653 13.429 19.2292 12.3164C18.7848 12.2471 18.3706 12.0936 17.9866 11.856C17.6025 11.6186 17.2945 11.3123 17.0625 10.9373C16.9181 11.1721 16.7448 11.3755 16.5428 11.5478C16.3405 11.72 16.111 11.8652 15.854 11.9833C15.9013 13.143 15.9747 14.292 16.074 15.4302C16.1733 16.5682 16.3055 17.7137 16.4707 18.8665ZM19.7708 10.7415C20.3264 10.7415 20.7813 10.5262 21.1356 10.0956C21.4896 9.66514 21.6667 9.15823 21.6667 8.57485H17.875C17.875 9.15823 18.052 9.66514 18.4061 10.0956C18.7604 10.5262 19.2153 10.7415 19.7708 10.7415Z" fill="#1D1D1D" fill-opacity="0.8"/>
</svg>
