<svg width="17" height="20" viewBox="0 0 17 20" fill="none" xmlns="http://www.w3.org/2000/svg">
<path d="M3.66654 17.3333V18.3541C3.66654 18.6724 3.55505 18.943 3.33206 19.1658C3.10908 19.3886 2.83824 19.5 2.51956 19.5C2.20106 19.5 1.93068 19.3886 1.70842 19.1658C1.48615 18.943 1.37502 18.6724 1.37502 18.3541V16.5501C1.03612 16.2932 0.722222 15.9296 0.433333 15.4594C0.144444 14.9893 0 14.4611 0 13.8751V3.79167C0 2.48047 0.651715 1.52073 1.95515 0.912438C3.2584 0.304146 5.31492 0 8.12473 0C11.036 0 13.118 0.29232 14.3707 0.876959C15.6236 1.46142 16.25 2.43299 16.25 3.79167V13.8751C16.25 14.4611 16.1056 14.9893 15.8167 15.4594C15.5278 15.9296 15.2139 16.2932 14.875 16.5501V18.3541C14.875 18.6724 14.7635 18.943 14.5405 19.1658C14.3173 19.3886 14.0465 19.5 13.728 19.5C13.4093 19.5 13.1388 19.3886 12.9166 19.1658C12.6945 18.943 12.5835 18.6724 12.5835 18.3541V17.3333H3.66654ZM1.625 8.66667H14.625V4.62502H1.625V8.66667ZM4.33577 14.4167C4.72992 14.4167 5.06413 14.2787 5.3384 14.0026C5.61284 13.7267 5.75006 13.3917 5.75006 12.9976C5.75006 12.6034 5.61203 12.2692 5.33596 11.9949C5.06007 11.7205 4.72505 11.5833 4.3309 11.5833C3.93674 11.5833 3.60254 11.7213 3.32827 11.9974C3.05383 12.2733 2.9166 12.6083 2.9166 13.0024C2.9166 13.3966 3.05464 13.7308 3.33071 14.0051C3.6066 14.2795 3.94162 14.4167 4.33577 14.4167ZM11.9191 14.4167C12.3133 14.4167 12.6475 14.2787 12.9217 14.0026C13.1962 13.7267 13.3334 13.3917 13.3334 12.9976C13.3334 12.6034 13.1954 12.2692 12.9193 11.9949C12.6434 11.7205 12.3084 11.5833 11.9142 11.5833C11.5201 11.5833 11.1859 11.7213 10.9116 11.9974C10.6372 12.2733 10.4999 12.6083 10.4999 13.0024C10.4999 13.3966 10.638 13.7308 10.914 14.0051C11.1899 14.2795 11.525 14.4167 11.9191 14.4167ZM1.92508 3.00002H14.3918C14.1625 2.56813 13.5819 2.23094 12.6501 1.98846C11.7181 1.74615 10.2208 1.625 8.15831 1.625C6.12923 1.625 4.64867 1.75175 3.71665 2.00525C2.78462 2.25875 2.18743 2.59034 1.92508 3.00002ZM3.79167 15.7083H12.4583C13.0542 15.7083 13.5642 15.4962 13.9885 15.0719C14.4128 14.6476 14.625 14.1375 14.625 13.5417V10.2917H1.625V13.5417C1.625 14.1375 1.83715 14.6476 2.26146 15.0719C2.68576 15.4962 3.19583 15.7083 3.79167 15.7083Z" fill="#1D1D1D" fill-opacity="0.8"/>
</svg>
