<svg width="21" height="21" viewBox="0 0 21 21" fill="none" xmlns="http://www.w3.org/2000/svg">
<path d="M11.4083 10.2917L8.63742 13.0626C8.48756 13.2108 8.41263 13.3961 8.41263 13.6186C8.41263 13.8408 8.48756 14.0326 8.63742 14.1938C8.79865 14.3617 8.99176 14.444 9.21673 14.4406C9.4417 14.4371 9.63472 14.3549 9.79577 14.1938L13.0125 10.9771C13.2084 10.7812 13.3063 10.5528 13.3063 10.2917C13.3063 10.0306 13.2084 9.80209 13.0125 9.60619L9.77925 6.37298C9.61801 6.21192 9.42771 6.13239 9.20833 6.13438C8.98896 6.13654 8.79865 6.22158 8.63742 6.3895C8.48756 6.55074 8.41154 6.74104 8.40938 6.96042C8.40739 7.17979 8.48692 7.3701 8.64798 7.53133L11.4083 10.2917ZM10.2936 20.5833C8.87006 20.5833 7.53206 20.3132 6.27954 19.773C5.02703 19.2328 3.93756 18.4996 3.01112 17.5736C2.08469 16.6475 1.35119 15.5585 0.810604 14.3065C0.270201 13.0545 0 11.7169 0 10.2936C0 8.87006 0.270111 7.53206 0.810333 6.27954C1.35056 5.02703 2.0837 3.93756 3.00977 3.01112C3.93584 2.08469 5.02486 1.35119 6.27683 0.810604C7.52881 0.270201 8.86645 0 10.2898 0C11.7133 0 13.0513 0.270111 14.3038 0.810333C15.5563 1.35056 16.6458 2.0837 17.5722 3.00977C18.4986 3.93584 19.2321 5.02486 19.7727 6.27683C20.3131 7.52881 20.5833 8.86645 20.5833 10.2898C20.5833 11.7133 20.3132 13.0513 19.773 14.3038C19.2328 15.5563 18.4996 16.6458 17.5736 17.5722C16.6475 18.4986 15.5585 19.2321 14.3065 19.7727C13.0545 20.3131 11.7169 20.5833 10.2936 20.5833ZM10.2917 18.9583C12.7111 18.9583 14.7604 18.1188 16.4396 16.4396C18.1188 14.7604 18.9583 12.7111 18.9583 10.2917C18.9583 7.87222 18.1188 5.82292 16.4396 4.14375C14.7604 2.46458 12.7111 1.625 10.2917 1.625C7.87222 1.625 5.82292 2.46458 4.14375 4.14375C2.46458 5.82292 1.625 7.87222 1.625 10.2917C1.625 12.7111 2.46458 14.7604 4.14375 16.4396C5.82292 18.1188 7.87222 18.9583 10.2917 18.9583Z" fill="white"/>
</svg>
