<svg width="30" height="27" viewBox="0 0 30 27" fill="none" xmlns="http://www.w3.org/2000/svg">
<path d="M14.6363 5.16569C14.3385 5.16569 14.0893 5.06531 13.8885 4.86454C13.6875 4.66355 13.587 4.41416 13.587 4.1164V1.0493C13.587 0.751531 13.6875 0.502264 13.8885 0.301498C14.0893 0.100499 14.3385 0 14.6363 0C14.9341 0 15.1833 0.100499 15.3841 0.301498C15.5851 0.502264 15.6856 0.751531 15.6856 1.0493V4.1164C15.6856 4.41416 15.5851 4.66355 15.3841 4.86454C15.1833 5.06531 14.9341 5.16569 14.6363 5.16569ZM21.3466 7.95298C21.1437 7.75035 21.0423 7.50248 21.0423 7.20938C21.0423 6.91604 21.1437 6.66806 21.3466 6.46542L23.4934 4.29687C23.7105 4.07979 23.9621 3.97124 24.2482 3.97124C24.5343 3.97124 24.7858 4.07979 25.0027 4.29687C25.2055 4.49951 25.307 4.74516 25.307 5.03383C25.307 5.32274 25.2055 5.56851 25.0027 5.77114L22.8208 7.95298C22.6182 8.15584 22.3724 8.25727 22.0835 8.25727C21.7949 8.25727 21.5492 8.15584 21.3466 7.95298ZM25.1832 15.7125C24.8854 15.7125 24.636 15.612 24.435 15.411C24.2342 15.2103 24.1339 14.961 24.1339 14.6632C24.1339 14.3655 24.2342 14.1162 24.435 13.9154C24.636 13.7144 24.8854 13.6139 25.1832 13.6139H28.2502C28.548 13.6139 28.7973 13.7144 28.9981 13.9154C29.199 14.1162 29.2995 14.3655 29.2995 14.6632C29.2995 14.961 29.199 15.2103 28.9981 15.411C28.7973 15.612 28.548 15.7125 28.2502 15.7125H25.1832ZM23.4934 25.0296L21.3466 22.8611C21.1437 22.6584 21.0423 22.4104 21.0423 22.1171C21.0423 21.824 21.1437 21.5761 21.3466 21.3735C21.5492 21.1706 21.7971 21.0692 22.0902 21.0692C22.3835 21.0692 22.6315 21.1706 22.8341 21.3735L25.0027 23.5204C25.2198 23.7374 25.3283 23.989 25.3283 24.2752C25.3283 24.5613 25.2198 24.8127 25.0027 25.0296C24.7858 25.2467 24.5343 25.3552 24.2482 25.3552C23.9621 25.3552 23.7105 25.2467 23.4934 25.0296ZM6.46543 7.96662L4.26994 5.77114C4.06708 5.56851 3.96565 5.32052 3.96565 5.02719C3.96565 4.73385 4.06708 4.49041 4.26994 4.29687C4.4868 4.07979 4.73606 3.97124 5.01774 3.97124C5.29942 3.97124 5.54869 4.07979 5.76554 4.29687L7.92605 6.47871C8.12891 6.68135 8.23256 6.92933 8.23699 7.22267C8.24142 7.516 8.14232 7.76399 7.93969 7.96662C7.73706 8.16925 7.49129 8.27057 7.20238 8.27057C6.91371 8.27057 6.66806 8.16925 6.46543 7.96662ZM6.64555 24.5375H12.6724C13.3449 24.5375 13.921 24.2975 14.4009 23.8177C14.8808 23.3378 15.1207 22.7616 15.1207 22.0891C15.1207 21.4164 14.8888 20.8424 14.425 20.3672C13.9615 19.8918 13.3934 19.654 12.7206 19.654H11.1523L10.5468 18.2039C10.2024 17.3985 9.66473 16.7595 8.93372 16.2869C8.20294 15.8142 7.39534 15.5779 6.51089 15.5779C5.28228 15.5779 4.23975 16.0061 3.38329 16.8626C2.52683 17.719 2.0986 18.7617 2.0986 19.9905C2.0986 21.255 2.54023 22.3289 3.42351 23.2122C4.30702 24.0957 5.38103 24.5375 6.64555 24.5375ZM6.64555 26.6361C4.80882 26.6361 3.2421 25.9876 1.9454 24.6907C0.648466 23.394 0 21.8273 0 19.9905C0 18.1806 0.632727 16.6429 1.89818 15.3775C3.16363 14.112 4.7012 13.4793 6.51089 13.4793C7.84723 13.4793 9.06337 13.8493 10.1593 14.5894C11.2552 15.3293 12.0517 16.318 12.5486 17.5555C13.8112 17.5555 14.9031 17.9829 15.8241 18.8377C16.7452 19.6923 17.2102 20.8146 17.2193 22.2045C17.1904 23.4441 16.7375 24.4926 15.8605 25.35C14.9833 26.2074 13.9206 26.6361 12.6724 26.6361H6.64555ZM17.1924 21.9356C17.1026 21.5858 17.0129 21.2455 16.9231 20.9146C16.8335 20.5837 16.7439 20.2434 16.6541 19.8936C17.7305 19.4415 18.5959 18.7469 19.2504 17.8097C19.9052 16.8726 20.2326 15.8238 20.2326 14.6632C20.2326 13.1243 19.6846 11.8068 18.5887 10.7109C17.4927 9.61495 16.1753 9.06698 14.6363 9.06698C13.2104 9.06698 11.9683 9.53742 10.9099 10.4783C9.85174 11.4189 9.24735 12.6023 9.09671 14.0284C8.74695 13.9386 8.38995 13.8561 8.02573 13.7808C7.66174 13.7055 7.30486 13.6229 6.9551 13.5331C7.22768 11.6248 8.09533 10.0536 9.55806 8.81935C11.0208 7.58537 12.7135 6.96839 14.6363 6.96839C16.7708 6.96839 18.5869 7.71724 20.0846 9.21493C21.5823 10.7126 22.3312 12.5287 22.3312 14.6632C22.3312 16.3062 21.8607 17.7864 20.9199 19.1039C19.9792 20.4213 18.7367 21.3652 17.1924 21.9356Z" fill="white"/>
</svg>
