<svg width="137" height="33" viewBox="0 0 137 33" fill="none" xmlns="http://www.w3.org/2000/svg">
<g opacity="0.9">
<path d="M31.8476 14.4117V9.47409C31.8476 5.72083 28.7829 2.68164 24.9982 2.68164H22.3638C18.5791 2.68164 15.5144 5.72083 15.5144 9.47409V17.7818L20.2826 28.6671C20.7656 29.7644 20.3968 30.9313 19.5977 31.6192C20.4495 31.9937 21.3803 32.2027 22.3726 32.2027H25.007C27.5184 32.2027 29.705 30.8616 30.8992 28.8674C29.2659 27.0735 28.2648 24.7136 28.2648 22.1098C28.2648 19.0271 29.6611 16.2665 31.8652 14.4117H31.8476Z" fill="#A4BC49"/>
</g>
<path d="M41.103 28.9019L45.801 15.169C43.9481 13.2271 41.3313 12.0166 38.4247 12.0166C35.9133 12.0166 33.6214 12.9223 31.8475 14.4114V25.4012C31.8475 26.6639 31.4875 27.8482 30.8816 28.8671C32.7432 30.9048 35.4303 32.2024 38.4247 32.2024C39.6629 32.2024 40.8396 31.976 41.9372 31.5754C41.1645 30.9484 40.7781 29.9295 41.103 28.9106V28.9019Z" fill="#68AC45"/>
<path d="M31.8476 14.4116C29.6435 16.2665 28.2473 19.0183 28.2473 22.1097C28.2473 24.7135 29.2484 27.0822 30.8817 28.8674C31.4876 27.8485 31.8476 26.6729 31.8476 25.4015V14.4116Z" fill="#458C39"/>
<path d="M48.6023 22.1007C48.6023 19.4098 47.531 16.9715 45.8011 15.1602L41.1031 28.8931C40.7782 29.912 41.1645 30.9308 41.9373 31.5578C45.8186 30.1384 48.6023 26.4461 48.6023 22.1007Z" fill="#34763C"/>
<path d="M15.5056 25.4012V17.7815L12.4848 10.8932C11.6155 8.91645 8.86693 8.91645 7.99758 10.8932L0.217365 28.6581C-0.511482 30.3214 0.682773 32.1937 2.45659 32.1937H18.0258C18.6317 32.1937 19.1674 31.9672 19.5801 31.6102C17.174 30.5565 15.4968 28.1704 15.4968 25.4012H15.5056Z" fill="#35763C"/>
<path d="M20.2739 28.6583L15.5056 17.7729V25.3927C15.5056 28.1706 17.1828 30.548 19.5889 31.6017C20.3968 30.9224 20.7568 29.7468 20.2739 28.6496V28.6583Z" fill="#25602E"/>
<path d="M64.0573 28.7278L55.5219 1.60157C54.6262 -0.610327 51.1049 -0.505828 50.3849 1.75832L45.801 15.1604C47.5309 16.9717 48.6023 19.41 48.6023 22.1008C48.6023 26.4463 45.8274 30.1386 41.9373 31.558C42.4202 31.9499 43.0437 32.185 43.7462 32.185H61.4668C63.3987 32.185 64.7335 30.3998 64.0485 28.7191L64.0573 28.7278Z" fill="#648943"/>
<path d="M77.7738 12.165L76.4478 14.046C74.9374 13.4712 73.8924 12.4262 73.2514 11.1287C72.6104 12.6614 71.4951 13.9328 69.8355 14.612L68.4919 12.7136C70.9858 11.6338 72.0045 9.46543 72.0045 7.48866V5.41609H74.4193V7.48866C74.4193 9.38706 75.4116 11.2768 77.7738 12.1737V12.165ZM84.0963 18.6614C84.0787 20.7078 81.6814 21.9531 77.9318 21.9531C74.1822 21.9531 71.7849 20.7165 71.7849 18.6614C71.7849 16.6062 74.1647 15.3696 77.9318 15.3696C81.699 15.3696 84.0787 16.6062 84.0963 18.6614ZM74.2788 18.6614C74.2613 19.6106 75.6048 20.0895 77.923 20.0895C80.2413 20.0895 81.5673 19.6019 81.5673 18.6614C81.5673 17.7209 80.2237 17.2071 77.923 17.2071C75.6224 17.2071 74.2525 17.7122 74.2788 18.6614ZM83.9997 15.1258H81.6375V10.6585H80.1535V14.5859H77.8352V4.67588H80.1535V8.66427H81.6375V4.37109H83.9997V15.1258Z" fill="white"/>
<path d="M100.956 14.664H98.4801V12.4173H95.1607V13.6974H86.7307V5.64226H95.1607V6.92238H98.4801V4.34473H100.956V14.6553V14.664ZM101.018 18.5479C101 20.7163 98.6733 21.9529 94.8885 21.9529C91.1038 21.9529 88.7855 20.7163 88.7855 18.5479C88.7855 16.3796 91.1038 15.1256 94.8885 15.1256C98.6733 15.1256 100.992 16.3796 101.018 18.5479ZM89.2158 11.7381H92.7283V7.60162H89.2158V11.7381ZM91.2619 18.5479C91.2619 19.5581 92.5264 20.0806 94.8885 20.0806C97.2507 20.0806 98.5328 19.5581 98.5328 18.5479C98.5328 17.5378 97.2419 16.9978 94.8885 16.9978C92.5351 16.9978 91.2619 17.5029 91.2619 18.5479ZM98.4801 10.4231V8.87303H95.1607V10.4231H98.4801Z" fill="white"/>
<path d="M114.682 15.8222L114.875 17.5987C110.932 18.3563 106.717 18.3912 103.617 18.3912L103.327 16.3796C106.489 16.397 110.879 16.3447 114.682 15.8222ZM113.926 9.83965C113.926 12.3738 111.819 14.1764 109.009 14.1764C106.199 14.1764 104.074 12.3738 104.074 9.83965C104.074 7.30554 106.199 5.50293 109.009 5.52905C111.819 5.51164 113.926 7.33166 113.926 9.83965ZM106.55 9.83965C106.533 11.233 107.604 12.0254 109.009 12.0254C110.414 12.0254 111.485 11.233 111.503 9.83965C111.485 8.46374 110.431 7.65387 109.009 7.65387C107.586 7.65387 106.533 8.46374 106.55 9.83965ZM118.177 21.9964H115.7V4.34473H118.177V21.9877V21.9964Z" fill="white"/>
<path d="M134.957 17.5205H132.578V19.7063H135.151V21.683H122.084V19.7063H124.657V17.5205H122.242V15.5873H127.353V14.133H120.503V12.1562H136.696V14.133H129.829V15.5873H134.957V17.5205ZM135.897 9.37826L135.019 11.2941C131.954 10.9109 129.741 9.64822 128.6 7.92398C127.458 9.64822 125.237 10.9022 122.198 11.2941L121.303 9.37826C125.263 8.91672 127.309 6.95736 127.335 5.1025V4.51904H129.891V5.1025C129.891 6.92253 131.937 8.93414 135.897 9.37826ZM130.145 19.7063V17.5205H127.125V19.7063H130.145Z" fill="white"/>
<path d="M70.6433 26.3853H74.1734V27.0297H71.3722V28.9716H73.9012V29.6073H71.3722V32.2024H70.6433V26.394V26.3853Z" fill="white"/>
<path d="M77.6156 32.2722C76.114 32.2722 75.0251 31.1227 75.0251 29.2853C75.0251 27.4478 76.1052 26.2983 77.6156 26.2983C79.126 26.2983 80.2061 27.4478 80.2061 29.2853C80.2061 31.1227 79.1172 32.2722 77.6156 32.2722ZM77.6156 26.9776C76.5531 26.9776 75.7277 27.7875 75.7277 29.2853C75.7277 30.7831 76.5531 31.593 77.6156 31.593C78.6782 31.593 79.5036 30.7831 79.5036 29.2853C79.5036 27.7875 78.6782 26.9776 77.6156 26.9776Z" fill="white"/>
<path d="M81.2773 26.3853H83.2707C84.6494 26.3853 85.2728 27.1429 85.2728 28.1792C85.2728 28.9455 84.9216 29.5551 84.1839 29.8076L85.5011 32.2024H84.6494L83.4288 29.9382H83.2795H82.0062V32.1937H81.2773V26.3853ZM83.2443 29.2764C84.1752 29.2764 84.544 28.8584 84.544 28.1704C84.544 27.4825 84.1752 27.021 83.2356 27.021H82.0062V29.2764H83.2443Z" fill="white"/>
<path d="M86.3267 26.3853H89.8831V27.0297H87.0555V28.9716H89.6899V29.6073H87.0555V31.558H89.9182V32.2024H86.3267V26.394V26.3853Z" fill="white"/>
<path d="M92.9302 26.9428C92.1575 26.9428 91.6394 27.3434 91.6394 27.9007C91.6394 28.5103 92.3243 28.7367 92.7722 28.8499L93.3517 29.0067C93.984 29.1634 95.0114 29.5292 95.0114 30.609C95.0114 31.5582 94.2386 32.2984 92.8863 32.2984C91.6218 32.2984 90.8403 31.6453 90.77 30.6874H91.5164C91.5779 31.3405 92.1926 31.6453 92.8863 31.6453C93.6942 31.6453 94.3001 31.236 94.3001 30.6003C94.3001 30.0343 93.7557 29.8253 93.141 29.6424L92.4209 29.4508C91.4989 29.1896 90.9281 28.7193 90.9281 27.9356C90.9281 26.9602 91.8062 26.3071 92.939 26.3071C94.0718 26.3071 94.8884 26.969 94.9236 27.8485H94.2123C94.1508 27.2825 93.6239 26.9515 92.9214 26.9515L92.9302 26.9428Z" fill="white"/>
<path d="M95.7402 26.3853H100.157V27.0297H98.3219V32.2024H97.5843V27.0297H95.7402V26.3853Z" fill="white"/>
<path d="M103.213 26.3853H106.743V27.0297H103.942V28.9716H106.471V29.6073H103.942V32.2024H103.213V26.394V26.3853Z" fill="white"/>
<path d="M110.194 32.2722C108.693 32.2722 107.604 31.1227 107.604 29.2853C107.604 27.4478 108.684 26.2983 110.194 26.2983C111.705 26.2983 112.785 27.4478 112.785 29.2853C112.785 31.1227 111.696 32.2722 110.194 32.2722ZM110.194 26.9776C109.132 26.9776 108.306 27.7875 108.306 29.2853C108.306 30.7831 109.132 31.593 110.194 31.593C111.257 31.593 112.082 30.7831 112.082 29.2853C112.082 27.7875 111.257 26.9776 110.194 26.9776Z" fill="white"/>
<path d="M113.856 26.3853H115.849C117.228 26.3853 117.851 27.1429 117.851 28.1792C117.851 28.9455 117.5 29.5551 116.763 29.8076L118.08 32.2024H117.228L116.007 29.9382H115.858H114.585V32.1937H113.856V26.3853ZM115.823 29.2764C116.754 29.2764 117.123 28.8584 117.123 28.1704C117.123 27.4825 116.754 27.021 115.814 27.021H114.585V29.2764H115.823Z" fill="white"/>
<path d="M120.978 26.3853H121.706V31.558H124.429V32.2024H120.978V26.394V26.3853Z" fill="white"/>
<path d="M126.132 32.1937H125.403V26.3853H126.132V32.1937Z" fill="white"/>
<path d="M127.423 26.3853H130.953V27.0297H128.152V28.9716H130.681V29.6073H128.152V32.2024H127.423V26.394V26.3853Z" fill="white"/>
<path d="M132.042 26.3853H135.598V27.0297H132.771V28.9716H135.405V29.6073H132.771V31.558H135.634V32.2024H132.042V26.394V26.3853Z" fill="white"/>
</svg>
