<svg width="505" height="638" viewBox="0 0 505 638" fill="none" xmlns="http://www.w3.org/2000/svg">
<mask id="path-1-inside-1_115_1631" fill="white">
<path d="M456.463 0C456.463 29.8891 478.193 54.1185 505 54.1201V583.879C478.193 583.88 456.463 608.111 456.463 638H48.542C48.542 608.11 26.8106 583.879 0.00292969 583.879H0V54.1201L0.00292969 54.1211C26.8106 54.1209 48.542 29.8899 48.542 0H456.463Z"/>
</mask>
<path d="M456.463 0H457.463V-1H456.463V0ZM505 54.1201H506V53.1202L505 53.1201L505 54.1201ZM505 583.879L505 584.879L506 584.879V583.879H505ZM456.463 638V639H457.463V638H456.463ZM48.542 638H47.542V639H48.542V638ZM0.00292969 583.879L0.00293638 582.879H0.00292969V583.879ZM0 583.879H-1V584.879H0V583.879ZM0 54.1201L0.316228 53.1714L-1 52.7327V54.1201H0ZM0.00292969 54.1211L-0.313298 55.0698L-0.159345 55.1211H0.00293638L0.00292969 54.1211ZM48.542 0V-1H47.542V0H48.542ZM456.463 0H455.463C455.463 30.3362 477.542 55.1185 505 55.1201L505 54.1201L505 53.1201C478.845 53.1186 457.463 29.4419 457.463 0H456.463ZM505 54.1201H504V583.879H505H506V54.1201H505ZM505 583.879L505 582.879C477.542 582.881 455.463 607.664 455.463 638H456.463H457.463C457.463 608.558 478.845 584.88 505 584.879L505 583.879ZM456.463 638V637H48.542V638V639H456.463V638ZM48.542 638H49.542C49.542 607.663 27.4624 582.879 0.00293638 582.879L0.00292969 583.879L0.002923 584.879C26.1587 584.879 47.542 608.557 47.542 638H48.542ZM0.00292969 583.879V582.879H0V583.879V584.879H0.00292969V583.879ZM0 583.879H1V54.1201H0H-1V583.879H0ZM0 54.1201L-0.316228 55.0688L-0.313298 55.0698L0.00292969 54.1211L0.319157 53.1724L0.316228 53.1714L0 54.1201ZM0.00292969 54.1211L0.00293638 55.1211C27.4624 55.1209 49.542 30.3371 49.542 0H48.542H47.542C47.542 29.4428 26.1587 53.1209 0.002923 53.1211L0.00292969 54.1211ZM48.542 0V1H456.463V0V-1H48.542V0Z" fill="black" fill-opacity="0.4" mask="url(#path-1-inside-1_115_1631)"/>
</svg>
