<svg width="11" height="18" viewBox="0 0 11 18" fill="none" xmlns="http://www.w3.org/2000/svg">
<path d="M2.86842 9.00612L10.6053 15.9829C10.8684 16.2202 10.9956 16.4971 10.9868 16.8135C10.9781 17.1299 10.8421 17.4067 10.579 17.644C10.3158 17.8813 10.0088 18 9.6579 18C9.30702 18 9 17.8813 8.73685 17.644L0.631581 10.3588C0.421054 10.1689 0.26316 9.95535 0.157896 9.71804C0.0526332 9.48073 1.61617e-06 9.24343 1.57468e-06 9.00612C1.53319e-06 8.76882 0.0526331 8.53151 0.157896 8.29421C0.263159 8.0569 0.421054 7.84333 0.63158 7.65348L8.73684 0.344474C9 0.107169 9.3114 -0.00752906 9.67105 0.00038106C10.0307 0.00829118 10.3421 0.130899 10.6053 0.368204C10.8684 0.60551 11 0.882366 11 1.19877C11 1.51518 10.8684 1.79204 10.6053 2.02934L2.86842 9.00612Z" fill="#3D3D3D"/>
</svg>
