<svg width="9" height="5" viewBox="0 0 9 5" fill="none" xmlns="http://www.w3.org/2000/svg">
<path d="M4.50306 3.69617L7.99145 0.179426C8.1101 0.0598086 8.24853 0.00199337 8.40674 0.0059806C8.56494 0.00996784 8.70337 0.07177 8.82202 0.191387C8.94067 0.311004 9 0.450558 9 0.610047C9 0.769537 8.94067 0.90909 8.82202 1.02871L5.17938 4.71292C5.08446 4.80861 4.97767 4.88038 4.85902 4.92823C4.74037 4.97608 4.62172 5 4.50306 5C4.38441 5 4.26576 4.97608 4.1471 4.92823C4.02845 4.88038 3.92166 4.80861 3.82674 4.71292L0.172238 1.02871C0.0535849 0.909091 -0.0037639 0.767544 0.000191183 0.604067C0.00414627 0.44059 0.0654502 0.299043 0.184103 0.179426C0.302756 0.059809 0.441184 -1.92848e-08 0.599387 -2.62001e-08C0.757591 -3.31154e-08 0.896019 0.0598089 1.01467 0.179426L4.50306 3.69617Z" fill="white"/>
</svg>
