<svg width="464" height="580" viewBox="0 0 464 580" fill="none" xmlns="http://www.w3.org/2000/svg">
<mask id="path-1-inside-1_228_636" fill="white">
<path d="M232 0C360.13 0 464 93.6934 464 209.27V580.001H0V209.27C0 93.6934 103.87 0 232 0Z"/>
</mask>
<path d="M232 0C360.13 0 464 93.6934 464 209.27V580.001H0V209.27C0 93.6934 103.87 0 232 0Z" fill="#D9D9D9" fill-opacity="0.01"/>
<path d="M464 580.001V582.001H466V580.001H464ZM0 580.001H-2V582.001H0V580.001ZM232 0V2C359.224 2 462 94.987 462 209.27H464H466C466 92.3998 361.036 -2 232 -2V0ZM464 209.27H462V580.001H464H466V209.27H464ZM464 580.001V578.001H0V580.001V582.001H464V580.001ZM0 580.001H2V209.27H0H-2V580.001H0ZM0 209.27H2C2 94.987 104.776 2 232 2V0V-2C102.964 -2 -2 92.3998 -2 209.27H0Z" fill="#CCCCCC" mask="url(#path-1-inside-1_228_636)"/>
</svg>
