<svg width="45" height="45" viewBox="0 0 45 45" fill="none" xmlns="http://www.w3.org/2000/svg">
<mask id="mask0_2101_134" style="mask-type:alpha" maskUnits="userSpaceOnUse" x="0" y="0" width="45" height="45">
<rect width="45" height="45" fill="#D9D9D9"/>
</mask>
<g mask="url(#mask0_2101_134)">
<path d="M24.2344 20.7185L16.9327 13.4169L18.9375 11.459L24.2344 16.7559L34.875 6.16211L36.8329 8.11998L24.2344 20.7185ZM25.9254 40.853L12.2235 36.9443V39.5188H2.84863V21.5623H16.2764L27.7572 25.8027C28.6081 26.1176 29.3148 26.6747 29.8773 27.4739C30.4398 28.2732 30.7211 29.2113 30.7211 30.2882H35.4086C36.7548 30.2882 37.8545 30.7443 38.7079 31.6566C39.5612 32.5688 39.9879 33.7713 39.9879 35.2641V36.454L25.9254 40.853ZM5.66104 36.7064H9.41104V24.3747H5.66104V36.7064ZM25.8317 37.8891L37.024 34.4204C36.9663 34.0045 36.7854 33.6806 36.4814 33.4486C36.1773 33.2166 35.8197 33.1007 35.4086 33.1007H26.5168C25.6082 33.1007 24.7512 33.0412 23.9459 32.9222C23.1406 32.8032 22.3389 32.6054 21.5409 32.329L18.1081 31.168L18.9879 28.4709L22.6298 29.6897C23.2283 29.9012 23.9146 30.0538 24.6887 30.1476C25.4627 30.2413 26.536 30.2882 27.9086 30.2882C27.9086 29.8243 27.8041 29.424 27.5949 29.0875C27.3858 28.7509 27.1106 28.5238 26.7692 28.406L15.8004 24.3747H12.2235V34.0382L25.8317 37.8891Z" fill="white"/>
</g>
</svg>
