<svg width="45" height="45" viewBox="0 0 45 45" fill="none" xmlns="http://www.w3.org/2000/svg">
<mask id="mask0_2101_128" style="mask-type:alpha" maskUnits="userSpaceOnUse" x="0" y="0" width="45" height="45">
<rect width="45" height="45" fill="#D9D9D9"/>
</mask>
<g mask="url(#mask0_2101_128)">
<path d="M4.43518 38.582V5.76953H22.2476V13.2695H40.5649V38.582H4.43518ZM7.24759 35.7695H11.9351V31.082H7.24759V35.7695ZM7.24759 28.2695H11.9351V23.582H7.24759V28.2695ZM7.24759 20.7695H11.9351V16.082H7.24759V20.7695ZM7.24759 13.2695H11.9351V8.58198H7.24759V13.2695ZM14.7476 35.7695H19.4351V31.082H14.7476V35.7695ZM14.7476 28.2695H19.4351V23.582H14.7476V28.2695ZM14.7476 20.7695H19.4351V16.082H14.7476V20.7695ZM14.7476 13.2695H19.4351V8.58198H14.7476V13.2695ZM22.2476 35.7695H37.7524V16.082H22.2476V20.7695H26.3582V23.582H22.2476V28.2695H26.3582V31.082H22.2476V35.7695ZM30.4688 23.582V20.7695H33.2812V23.582H30.4688ZM30.4688 31.082V28.2695H33.2812V31.082H30.4688Z" fill="white"/>
</g>
</svg>
