<svg width="165" height="49" viewBox="0 0 165 49" fill="none" xmlns="http://www.w3.org/2000/svg">
<g clip-path="url(#clip0_186_156)">
<path d="M1.50124 26.4206H18.6973C19.5161 26.4206 19.9255 26.8271 19.9255 27.64C19.7891 29.6724 19.5161 31.0273 19.1067 33.4662L15.5583 33.1953C15.8586 32.0029 16.1042 30.8919 16.2407 29.6724H1.77419L1.50124 26.4206ZM0 34.9566H21.6998V38.2085H0V34.9566ZM1.77419 40.2409H19.7891V49.1834H3.00248C2.18362 49.1834 1.77419 48.7769 1.77419 47.9639V40.2409ZM5.32259 45.9316H16.2407V43.4927H5.32259V45.9316ZM39.1205 39.0214C42.3961 39.0214 44.3065 38.2085 44.3065 36.989C44.3065 35.7696 42.3961 34.9566 39.1205 34.9566C35.8451 34.9566 33.9345 35.7696 33.9345 36.989C33.9345 38.2085 35.8451 39.0214 39.1205 39.0214ZM29.1578 27.64H37.3464V25.2012H41.0311V27.64H48.947V30.8919H29.4307L29.1578 27.64ZM28.4754 44.7121H37.3464V41.8668C32.5151 41.4874 30.1131 39.7802 30.1131 36.989C30.1131 33.8727 33.1156 32.1113 39.1205 32.1113C45.1254 32.1113 48.1281 33.8727 48.1281 36.989C48.1281 39.7802 45.726 41.4874 40.8948 41.8668V44.7121H49.6291L49.9022 47.9639H28.4754V44.7121ZM57.633 27.64H68.5513C69.3701 27.64 69.7796 28.0465 69.7796 28.8595V45.254H58.8613C58.0425 45.254 57.633 44.8475 57.633 44.0346V27.64ZM66.2311 30.8919H61.1816V42.0023H66.2311V30.8919ZM73.4644 26.0141H77.1493V49.1834H73.4644V26.0141ZM93.8876 26.0141H97.7092V26.8271C97.7092 28.5885 103.168 29.8079 106.307 30.0789L104.806 33.1953C102.649 32.9243 98.3094 31.8945 95.7984 29.9434C93.3418 31.9487 89.0019 33.0327 86.791 33.3307L85.2896 30.2144C88.2923 29.9434 93.8876 28.5885 93.8876 26.8271V26.0141ZM85.0169 33.8727H106.717V36.989H97.7092V38.7504H104.806V45.3897H90.3395V46.4734H104.942L105.215 49.3187H88.0192C87.2004 49.3187 86.791 48.9123 86.791 48.0993V42.6797H101.394V41.5958H86.791V38.7504H93.8876V36.989H85.0169V33.8727ZM113.629 26.8271H126.184C127.003 26.8271 127.412 27.2336 127.412 28.0465C127.276 30.2144 127.14 33.3307 126.73 35.2276L123.182 34.9566C123.428 33.7101 123.646 31.8945 123.728 30.0789H113.901L113.629 26.8271ZM129.46 26.1496H133.008V30.4854H136.01V33.7372H133.008V42.6797H129.46V26.1496ZM116.767 31.8403H120.316V36.8536C123.482 36.7993 126.403 36.5554 128.504 36.1761V39.4279C125.502 39.9699 120.725 40.2409 115.948 40.2409H113.219V36.989H115.948H116.767V31.8403ZM115.539 41.8668H119.088V45.5251H133.281L133.554 48.9123H116.767C115.948 48.9123 115.539 48.5058 115.539 47.6928V41.8668Z" fill="#1D1D1D"/>
<path d="M134.838 15.6809C134.838 16.0875 134.897 16.5085 135.058 16.8933C135.781 18.6648 137.609 19.7539 139.926 18.8318C140.489 18.6067 155.875 12.4573 155.875 12.4573C155.875 12.4573 149.815 27.711 149.589 28.2846C148.705 30.4699 149.764 32.4519 151.57 33.1199C151.972 33.2578 152.381 33.3377 152.798 33.3304C154.26 33.3304 155.56 32.4665 156.197 30.7458C156.299 30.4844 163.871 9.82189 164.04 9.32095C164.135 9.03052 164.31 8.34081 164.317 7.86164C164.317 6.83795 163.937 5.87235 163.206 5.15359C162.475 4.42757 161.518 4.0573 160.502 4.06456C160.012 4.06456 159.61 4.15168 158.996 4.34045C158.631 4.45661 139.1 11.6805 137.426 12.2976C135.752 12.9147 134.831 14.2361 134.838 15.6954" fill="#ED1C24"/>
</g>
<defs>
<clipPath id="clip0_186_156">
<rect width="165" height="48.7774" fill="white"/>
</clipPath>
</defs>
</svg>
