<?xml version="1.0" encoding="UTF-8"?>
<svg id="Layer_1" xmlns="http://www.w3.org/2000/svg" version="1.1" viewBox="0 0 841.89 595.28">
  <!-- Generator: Adobe Illustrator 30.0.0, SVG Export Plug-In . SVG Version: 2.1.1 Build 123)  -->
  <defs>
    <style>
      .st0 {
        fill: #454b52;
      }

      .st1 {
        fill: #ed1c24;
      }
    </style>
  </defs>
  <path class="st1" d="M431.76,279.48c0,.5.07,1.01.27,1.49.88,2.17,3.09,3.5,5.91,2.37.68-.27,19.36-7.8,19.36-7.8,0,0-7.36,18.65-7.63,19.35-1.07,2.67.21,5.09,2.41,5.91.49.18.99.26,1.49.26,1.78-.01,3.36-1.06,4.13-3.16.12-.32,9.32-25.58,9.53-26.19.11-.35.33-1.2.33-1.78,0-1.25-.46-2.43-1.35-3.32-.89-.88-2.05-1.34-3.28-1.33-.59,0-1.08.11-1.82.34-.44.14-24.16,8.97-26.18,9.73-2.03.76-3.15,2.37-3.14,4.15"/>
  <g>
    <path class="st0" d="M323.78,316.35l-9.37-13.48,9.33-11.97h5.62l-9.52,11.79,10.16,13.65h-6.23ZM309.48,290.91h4.9v25.44h-4.9v-25.44Z"/>
    <path class="st0" d="M350.95,310.94c-1.33,4.25-5.4,5.92-9.59,5.92s-8-1.58-9.44-5.66c-.54-1.52-.61-3.17-.61-4.76v-15.54h4.91v14.59c0,1.55-.08,3.54.72,4.94.89,1.63,2.74,2.16,4.47,2.16,1.61,0,3.46-.54,4.35-2.02.84-1.4.79-3.23.79-4.83v-14.85h4.91v15.89c0,1.41-.07,2.81-.51,4.15"/>
    <polygon class="st0" points="375.77 316.35 375.77 296.5 370.33 316.35 365.29 316.35 359.92 296.5 359.92 316.35 355.52 316.35 355.52 290.91 362.33 290.91 367.84 311.12 373.43 290.91 380.17 290.91 380.17 316.35 375.77 316.35"/>
    <polygon class="st0" points="399.33 316.35 399.33 305.11 389.24 305.11 389.24 316.35 384.34 316.35 384.34 290.91 389.24 290.91 389.24 301.07 399.33 301.07 399.33 290.91 404.23 290.91 404.23 316.35 399.33 316.35"/>
    <path class="st0" d="M418.96,294.59c-4.93,0-6.38,4.97-6.38,9.05s1.44,9.04,6.41,9.04,6.42-4.97,6.42-9.04-1.51-9.05-6.45-9.05M424.73,315.34c-1.73,1.05-3.79,1.51-5.77,1.51-1.66,0-3.57-.42-5.07-1.19-4.7-2.41-6.38-7.03-6.38-12.04s1.54-9.34,5.99-11.86c1.65-.94,3.6-1.37,5.5-1.37,3,0,5.92,1.09,8,3.25,2.57,2.63,3.5,6.42,3.5,9.99,0,4.75-1.51,9.14-5.76,11.71"/>
  </g>
</svg>