<svg width="150" height="45" viewBox="0 0 150 45" fill="none" xmlns="http://www.w3.org/2000/svg">
<g clip-path="url(#clip0_209_1124)">
<path d="M1.36476 23.9737H16.9975C17.7419 23.9737 18.1141 24.3426 18.1141 25.0803C17.9901 26.9246 17.7419 28.1541 17.3697 30.3672L14.1439 30.1213C14.4169 29.0393 14.6402 28.0311 14.7643 26.9246H1.6129L1.36476 23.9737ZM0 31.7196H19.7271V34.6705H0V31.7196ZM1.6129 36.5147H17.9901V44.6295H2.72953C1.98511 44.6295 1.6129 44.2606 1.6129 43.5229V36.5147ZM4.83872 41.6787H14.7643V39.4655H4.83872V41.6787ZM35.5641 35.4082C38.5419 35.4082 40.2787 34.6705 40.2787 33.5639C40.2787 32.4574 38.5419 31.7196 35.5641 31.7196C32.5865 31.7196 30.8495 32.4574 30.8495 33.5639C30.8495 34.6705 32.5865 35.4082 35.5641 35.4082ZM26.5071 25.0803H33.9512V22.8672H37.301V25.0803H44.4973V28.0311H26.7552L26.5071 25.0803ZM25.8867 40.5721H33.9512V37.9901C29.5592 37.6459 27.3755 36.0967 27.3755 33.5639C27.3755 30.736 30.1051 29.1377 35.5641 29.1377C41.0231 29.1377 43.7529 30.736 43.7529 33.5639C43.7529 36.0967 41.5691 37.6459 37.177 37.9901V40.5721H45.1174L45.3656 43.5229H25.8867V40.5721ZM52.3937 25.0803H62.3194C63.0638 25.0803 63.436 25.4492 63.436 26.1869V41.0638H53.5103C52.7659 41.0638 52.3937 40.6949 52.3937 39.9573V25.0803ZM60.21 28.0311H55.6196V38.1131H60.21V28.0311ZM66.7859 23.6049H70.1357V44.6295H66.7859V23.6049ZM85.3524 23.6049H88.8265V24.3426C88.8265 25.9409 93.7892 27.0475 96.6429 27.2934L95.278 30.1213C93.3176 29.8754 89.3722 28.941 87.0895 27.1705C84.8562 28.9901 80.9108 29.9738 78.9009 30.2442L77.536 27.4164C80.2658 27.1705 85.3524 25.9409 85.3524 24.3426V23.6049ZM77.2881 30.736H97.0151V33.5639H88.8265V35.1623H95.278V41.187H82.1268V42.1703H95.402L95.6503 44.7523H80.0175C79.2731 44.7523 78.9009 44.3835 78.9009 43.6458V38.7278H92.1764V37.7442H78.9009V35.1623H85.3524V33.5639H77.2881V30.736ZM103.299 24.3426H114.713C115.457 24.3426 115.83 24.7114 115.83 25.4492C115.706 27.4164 115.582 30.2442 115.209 31.9656L111.984 31.7196C112.207 30.5885 112.405 28.941 112.48 27.2934H103.547L103.299 24.3426ZM117.691 23.7278H120.917V27.6623H123.646V30.6131H120.917V38.7278H117.691V23.7278ZM106.152 28.8918H109.378V33.441C112.256 33.3918 114.912 33.1705 116.822 32.8262V35.777C114.093 36.2688 109.75 36.5147 105.408 36.5147H102.927V33.5639H105.408H106.152V28.8918ZM105.035 37.9901H108.261V41.3098H121.165L121.413 44.3835H106.152C105.408 44.3835 105.035 44.0146 105.035 43.2769V37.9901Z" fill="#1D1D1D"/>
<path d="M122.58 14.2286C122.58 14.5976 122.634 14.9797 122.78 15.3289C123.438 16.9364 125.099 17.9246 127.206 17.0879C127.717 16.8837 141.705 11.3035 141.705 11.3035C141.705 11.3035 136.196 25.1452 135.99 25.6657C135.186 27.6487 136.149 29.4473 137.791 30.0534C138.156 30.1786 138.529 30.251 138.907 30.2445C140.236 30.2445 141.419 29.4605 141.997 27.8991C142.09 27.6619 148.974 8.912 149.127 8.45743C149.213 8.19388 149.373 7.56801 149.379 7.1332C149.379 6.20427 149.034 5.32804 148.369 4.67582C147.705 4.017 146.834 3.68101 145.911 3.6876C145.466 3.6876 145.1 3.76665 144.542 3.93795C144.21 4.04336 126.454 10.5986 124.933 11.1586C123.411 11.7186 122.574 12.9176 122.58 14.2418" fill="#ED1C24"/>
</g>
<defs>
<clipPath id="clip0_209_1124">
<rect width="150" height="44.2623" fill="white"/>
</clipPath>
</defs>
</svg>
