<svg width="19" height="21" viewBox="0 0 19 21" fill="none" xmlns="http://www.w3.org/2000/svg">
<path d="M3.95796 20.5833C3.72775 20.5833 3.53483 20.5054 3.37919 20.3496C3.22373 20.194 3.146 20.001 3.146 19.7708V11.0015C2.171 10.7505 1.40292 10.2768 0.84175 9.58019C0.280583 8.8836 0 8.06867 0 7.13538V0.8125C0 0.582292 0.0779098 0.389368 0.233729 0.233729C0.389549 0.0779099 0.582562 0 0.812771 0C1.04316 0 1.23608 0.0779099 1.39154 0.233729C1.54718 0.389368 1.625 0.582292 1.625 0.8125V6.32288H3.146V0.8125C3.146 0.582292 3.22382 0.389368 3.37946 0.233729C3.53528 0.0779099 3.72838 0 3.95877 0C4.18898 0 4.3819 0.0779099 4.53754 0.233729C4.693 0.389368 4.77073 0.582292 4.77073 0.8125V6.32288H6.29173V0.8125C6.29173 0.582292 6.36964 0.389368 6.52546 0.233729C6.68128 0.0779099 6.87429 0 7.1045 0C7.33489 0 7.52781 0.0779099 7.68327 0.233729C7.83891 0.389368 7.91673 0.582292 7.91673 0.8125V7.13538C7.91673 8.06867 7.63615 8.8836 7.07498 9.58019C6.51381 10.2768 5.74573 10.7505 4.77073 11.0015V19.7708C4.77073 20.001 4.69282 20.194 4.537 20.3496C4.38136 20.5054 4.18835 20.5833 3.95796 20.5833ZM14.4476 20.5833C14.2172 20.5833 14.0243 20.5054 13.8688 20.3496C13.7132 20.194 13.6354 20.001 13.6354 19.7708V10.6188C12.6604 10.2868 11.8924 9.64681 11.3314 8.6989C10.7702 7.75098 10.4896 6.64237 10.4896 5.37306C10.4896 3.88402 10.8772 2.61625 11.6523 1.56975C12.4275 0.523251 13.3593 0 14.4479 0C15.5393 0 16.4736 0.526049 17.2507 1.57815C18.028 2.63024 18.4167 3.90072 18.4167 5.38958C18.4167 6.66593 18.1344 7.77526 17.5698 8.71758C17.0052 9.66008 16.2354 10.2924 15.2604 10.6145V19.7708C15.2604 20.001 15.1825 20.194 15.0266 20.3496C14.8708 20.5054 14.6778 20.5833 14.4476 20.5833Z" fill="#1D1D1D" fill-opacity="0.8"/>
</svg>
