<svg width="31" height="28" viewBox="0 0 31 28" fill="none" xmlns="http://www.w3.org/2000/svg">
<path d="M15.3858 5.43021C15.0728 5.43021 14.8107 5.32468 14.5997 5.11364C14.3884 4.90235 14.2827 4.64019 14.2827 4.32718V1.10303C14.2827 0.790013 14.3884 0.527983 14.5997 0.316937C14.8107 0.105645 15.0728 0 15.3858 0C15.6988 0 15.9608 0.105645 16.1719 0.316937C16.3832 0.527983 16.4888 0.790013 16.4888 1.10303V4.32718C16.4888 4.64019 16.3832 4.90235 16.1719 5.11364C15.9608 5.32468 15.6988 5.43021 15.3858 5.43021ZM22.4396 8.36022C22.2264 8.14721 22.1198 7.88665 22.1198 7.57854C22.1198 7.27018 22.2264 7.0095 22.4396 6.79649L24.6964 4.5169C24.9246 4.28869 25.1891 4.17459 25.4899 4.17459C25.7906 4.17459 26.055 4.28869 26.283 4.5169C26.4962 4.72991 26.6028 4.98814 26.6028 5.29159C26.6028 5.59529 26.4962 5.85365 26.283 6.06665L23.9894 8.36022C23.7764 8.57347 23.518 8.68009 23.2143 8.68009C22.9109 8.68009 22.6526 8.57347 22.4396 8.36022ZM26.4727 16.5171C26.1597 16.5171 25.8975 16.4115 25.6862 16.2002C25.4752 15.9891 25.3696 15.7271 25.3696 15.4141C25.3696 15.1011 25.4752 14.839 25.6862 14.628C25.8975 14.4167 26.1597 14.3111 26.4727 14.3111H29.6968C30.0098 14.3111 30.2719 14.4167 30.4829 14.628C30.6942 14.839 30.7999 15.1011 30.7999 15.4141C30.7999 15.7271 30.6942 15.9891 30.4829 16.2002C30.2719 16.4115 30.0098 16.5171 29.6968 16.5171H26.4727ZM24.6964 26.3113L22.4396 24.0317C22.2264 23.8187 22.1198 23.558 22.1198 23.2496C22.1198 22.9415 22.2264 22.681 22.4396 22.4679C22.6526 22.2547 22.9132 22.1481 23.2213 22.1481C23.5297 22.1481 23.7904 22.2547 24.0034 22.4679L26.283 24.7247C26.5112 24.9529 26.6253 25.2174 26.6253 25.5182C26.6253 25.8189 26.5112 26.0833 26.283 26.3113C26.055 26.5395 25.7906 26.6536 25.4899 26.6536C25.1891 26.6536 24.9246 26.5395 24.6964 26.3113ZM6.79649 8.37456L4.48859 6.06665C4.27534 5.85365 4.16871 5.59296 4.16871 5.28461C4.16871 4.97625 4.27534 4.72035 4.48859 4.5169C4.71655 4.28869 4.97858 4.17459 5.27468 4.17459C5.57078 4.17459 5.83281 4.28869 6.06077 4.5169L8.33191 6.81046C8.54516 7.02347 8.65411 7.28415 8.65877 7.59251C8.66343 7.90087 8.55925 8.16155 8.34625 8.37456C8.13324 8.58756 7.87489 8.69407 7.57118 8.69407C7.26773 8.69407 7.0095 8.58756 6.79649 8.37456ZM6.98585 25.7939H13.3213C14.0282 25.7939 14.6339 25.5417 15.1383 25.0373C15.6428 24.5328 15.895 23.9271 15.895 23.2202C15.895 22.513 15.6512 21.9097 15.1637 21.4101C14.6764 20.9103 14.0792 20.6604 13.372 20.6604H11.7234L11.0869 19.1361C10.7249 18.2894 10.1596 17.6177 9.39118 17.1208C8.62298 16.624 7.77402 16.3756 6.84429 16.3756C5.55277 16.3756 4.45685 16.8257 3.55653 17.726C2.65621 18.6263 2.20606 19.7224 2.20606 21.0142C2.20606 22.3434 2.67031 23.4723 3.59881 24.4008C4.52756 25.3296 5.65657 25.7939 6.98585 25.7939ZM6.98585 28C5.05506 28 3.40811 27.3183 2.04501 25.955C0.681671 24.5919 0 22.9449 0 21.0142C0 19.1116 0.665126 17.4951 1.99538 16.1649C3.32563 14.8346 4.94193 14.1695 6.84429 14.1695C8.24906 14.1695 9.52747 14.5585 10.6795 15.3365C11.8316 16.1143 12.6688 17.1536 13.1911 18.4544C14.5184 18.4544 15.6662 18.9037 16.6344 19.8023C17.6026 20.7006 18.0915 21.8804 18.1011 23.3415C18.0707 24.6446 17.5945 25.7468 16.6726 26.6481C15.7505 27.5494 14.6334 28 13.3213 28H6.98585ZM18.0727 23.0588C17.9784 22.6911 17.884 22.3334 17.7896 21.9856C17.6955 21.6377 17.6013 21.28 17.5069 20.9123C18.6384 20.437 19.5481 19.7068 20.2362 18.7217C20.9244 17.7366 21.2686 16.634 21.2686 15.4141C21.2686 13.7963 20.6926 12.4114 19.5405 11.2593C18.3885 10.1073 17.0035 9.53126 15.3858 9.53126C13.8869 9.53126 12.5811 10.0258 11.4686 11.0148C10.3562 12.0036 9.72086 13.2476 9.56252 14.7467C9.19484 14.6524 8.81957 14.5656 8.43669 14.4864C8.05407 14.4073 7.67891 14.3205 7.31124 14.2261C7.59778 12.2201 8.50986 10.5684 10.0475 9.27095C11.5851 7.97379 13.3645 7.32521 15.3858 7.32521C17.6296 7.32521 19.5387 8.1124 21.1131 9.68679C22.6875 11.2612 23.4746 13.1703 23.4746 15.4141C23.4746 17.1412 22.9801 18.6972 21.9911 20.0821C21.0023 21.467 19.6962 22.4592 18.0727 23.0588Z" fill="#0E64EB"/>
</svg>
