<svg width="11" height="18" viewBox="0 0 11 18" fill="none" xmlns="http://www.w3.org/2000/svg">
<path d="M2.86842 9.00613L10.6053 15.9829C10.8684 16.2202 10.9956 16.4971 10.9868 16.8135C10.9781 17.1299 10.8421 17.4067 10.5789 17.644C10.3158 17.8813 10.0088 18 9.6579 18C9.30702 18 9 17.8813 8.73684 17.644L0.631579 10.3588C0.421053 10.1689 0.263158 9.95535 0.157895 9.71804C0.0526316 9.48074 0 9.24343 0 9.00613C0 8.76882 0.0526316 8.53151 0.157895 8.29421C0.263158 8.0569 0.421053 7.84333 0.631579 7.65348L8.73684 0.344476C9 0.10717 9.3114 -0.00752743 9.67105 0.000382751C10.0307 0.00829293 10.3421 0.130901 10.6053 0.368206C10.8684 0.605512 11 0.882368 11 1.19878C11 1.51518 10.8684 1.79204 10.6053 2.02934L2.86842 9.00613Z" fill="white"/>
</svg>
