<svg width="5" height="10" viewBox="0 0 5 10" fill="none" xmlns="http://www.w3.org/2000/svg">
<path d="M3.69466 5.00319L0.173839 1.1323C0.0540833 1.00064 -0.00379871 0.844836 0.000193155 0.664897C0.00418502 0.484958 0.0660589 0.329157 0.185815 0.197494C0.305571 0.0658314 0.447282 0 0.610948 0C0.774614 0 0.916325 0.0658314 1.03608 0.197494L4.71259 4.25271C4.80839 4.35804 4.88024 4.47653 4.92815 4.6082C4.97605 4.73986 5 4.87152 5 5.00319C5 5.13485 4.97605 5.26651 4.92815 5.39817C4.88024 5.52984 4.80839 5.64833 4.71259 5.75366L1.02411 9.80888C0.90435 9.94054 0.764635 10.0042 0.60496 9.99979C0.445286 9.9954 0.305571 9.92737 0.185815 9.79571C0.0660589 9.66405 0.00618095 9.50825 0.00618095 9.32831C0.00618095 9.14837 0.0660589 8.99257 0.185815 8.8609L3.69466 5.00319Z" fill="black"/>
</svg>
