<svg width="100" height="39" viewBox="0 0 100 39" fill="none" xmlns="http://www.w3.org/2000/svg">
<path d="M20.585 25.0962C18.7645 25.0986 17.2659 26.5396 17.2659 28.3425C17.2659 30.1455 18.7645 31.5719 20.585 31.5768C22.4223 31.5695 23.909 30.1285 23.909 28.3425C23.909 26.5566 22.4223 25.0986 20.585 25.0962ZM20.5394 30.0969C19.5883 30.0969 18.8678 29.3097 18.8678 28.345C18.8678 27.3803 19.6364 26.576 20.5826 26.576C21.5289 26.576 22.271 27.3609 22.271 28.345C22.271 29.3291 21.4929 30.0969 20.537 30.0969H20.5394Z" fill="black"/>
<path d="M5.34861 22.8607C5.85777 23.3685 6.43899 23.8108 7.00819 24.0975L7.06823 24.1291L8.04813 22.9554L7.95446 22.902C7.0226 22.3917 6.29248 21.7478 5.81694 20.9337C5.3438 20.1343 5.10123 19.2012 5.10123 18.0908V17.0459H3.34798V17.979C3.34798 19.1842 3.07659 20.1319 2.57223 20.9629C2.00543 21.8814 1.16723 22.6225 0.0936667 23.3078L0 23.3661L1.06636 24.4814L1.124 24.4474C1.75565 24.0975 2.42813 23.5605 3.01415 22.9627C3.52091 22.4403 3.96042 21.8766 4.22461 21.3444C4.48159 21.8644 4.87787 22.3966 5.35101 22.8534L5.34861 22.8607Z" fill="black"/>
<path d="M3.45361 30.8114H10.798V25.7354H3.45361V30.8114ZM5.10119 27.169H9.14327V29.3802H5.10119V27.169Z" fill="black"/>
<path d="M10.8244 16.7471H9.1936V25.1545H10.8244V21.4344H12.7385V19.94H10.8244V16.7471Z" fill="black"/>
<path d="M52.475 23.2908C53.0106 23.7622 53.6254 24.1583 54.2018 24.4134L54.2619 24.4426L55.1433 23.2349L55.0496 23.1887C54.209 22.7514 53.4573 22.2119 52.9193 21.5558C52.3693 20.8828 52.0427 20.0736 52.0427 19.0968V18.81H54.4708V17.3618H47.8733V18.81H50.3014V19.1575C50.3014 20.0444 50.0084 20.873 49.5281 21.5899C48.9613 22.45 48.1327 23.145 47.3305 23.5921L47.2249 23.6504L48.308 24.7852L48.3681 24.756C48.9541 24.4207 49.5977 23.9128 50.1501 23.3442C50.5921 22.8753 50.9883 22.3796 51.2309 21.8863C51.5239 22.365 51.973 22.8461 52.475 23.2932V23.2908Z" fill="black"/>
<path d="M64.2866 27.2032H70.2236V30.8116H71.8736V25.7671H64.2866V27.2032Z" fill="black"/>
<path d="M68.3838 21.4222C68.3838 20.6276 68.0332 19.8962 67.5096 19.3373H69.1403V17.9061H66.0277V16.3291H64.2601V17.9061H61.073V19.3373H62.7374C62.2306 19.8962 61.8752 20.6203 61.8752 21.4222C61.8752 23.1936 63.3186 24.6345 65.1247 24.6394C66.9308 24.6345 68.3838 23.1936 68.3862 21.4222H68.3838ZM63.4483 21.3566C63.4483 20.3749 64.2673 19.5439 65.1223 19.5439C65.9773 19.5439 66.7939 20.3798 66.7963 21.3566C66.7963 22.3213 65.9773 23.1547 65.1223 23.1571C64.2649 23.1547 63.4483 22.3213 63.4483 21.3566Z" fill="black"/>
<path d="M71.8734 16.7471H70.2427V25.1837H71.8734V21.9641H73.79V20.4721H71.8734V16.7471Z" fill="black"/>
<path d="M58.0397 16.7471H56.4065V25.1837H58.0397V21.4344H59.9538V19.94H58.0397V16.7471Z" fill="black"/>
<path d="M95.1534 23.1085H89.6343V18.8562H93.8397V17.3594H87.9819V24.5616H95.1534V23.1085Z" fill="black"/>
<path d="M22.5809 19.2499H20.0134V20.7297H22.5809V25.4486H24.214V16.7471H22.5809V19.2499Z" fill="black"/>
<path d="M18.4306 23.0794C18.9398 23.5872 19.533 24.0295 20.1046 24.3283L20.167 24.3648L21.1493 23.1911L21.0533 23.1353C20.1214 22.6444 19.4057 22.0005 18.9277 21.1986C18.4402 20.404 18.1976 19.4369 18.1976 18.324V17.0483H16.4396V18.2196C16.4396 19.4248 16.173 20.37 15.6782 21.1865C15.1114 22.122 14.2612 22.8655 13.1853 23.5483L13.094 23.6067L14.1628 24.7268L14.2156 24.6928C14.8496 24.3429 15.5053 23.8351 16.0889 23.2543C16.6149 22.7222 17.0568 22.1463 17.321 21.5874C17.5732 22.0928 17.9599 22.6128 18.4258 23.0794H18.4306Z" fill="black"/>
<path d="M54.5357 25.0962C52.7152 25.0986 51.2165 26.5396 51.2141 28.3425C51.2165 30.1285 52.7152 31.5719 54.5357 31.5768C56.3706 31.5695 57.8596 30.1285 57.8596 28.3425C57.8596 26.5566 56.3706 25.0986 54.5357 25.0962ZM54.4876 30.0969C53.539 30.0969 52.8161 29.3097 52.8161 28.345C52.8161 27.3803 53.5822 26.576 54.5357 26.576C55.4892 26.576 56.2217 27.3609 56.2241 28.345C56.2217 29.3097 55.4435 30.0969 54.4876 30.0969Z" fill="black"/>
<path d="M92.0335 26.3306H90.3811V30.8113H98.105V29.3339H92.0335V26.3306Z" fill="black"/>
<path d="M98.0665 20.6446V16.7471H96.4358V27.1203H98.0665V22.1342H99.9975V20.6446H98.0665Z" fill="black"/>
<path d="M84.2519 20.5474H82.8781V16.9852H81.3362V30.4493H82.8781V22.1682H84.2519V30.8114H85.8538V16.7471H84.2519V20.5474Z" fill="black"/>
<path d="M79.069 22.4134C78.7016 21.5994 78.5502 20.693 78.5502 19.5753V19.0431H80.402V17.5269H75.0173V19.0431H76.9291V19.602C76.9291 20.659 76.7922 21.5216 76.4608 22.3235C76.0789 23.242 75.4352 24.073 74.4097 24.9575L74.3376 25.0255L75.3512 26.0412L75.4136 25.9927C75.9228 25.6112 76.456 25.0596 76.9027 24.491C77.2773 24.0098 77.5944 23.5141 77.7961 23.0768C78.0003 23.502 78.3197 23.9904 78.6919 24.4472C79.1267 24.9818 79.6142 25.4897 80.0825 25.791L80.1474 25.8347L81 24.802L80.9327 24.7388C80.0153 23.9297 79.4461 23.208 79.0714 22.411L79.069 22.4134Z" fill="black"/>
<path d="M4.6377 35.6634C3.85474 35.3816 3.70823 35.192 3.70823 34.8664C3.70823 34.5408 3.934 34.2832 4.46958 34.2832C4.86106 34.2832 5.12524 34.412 5.40865 34.6502L5.68724 34.3027C5.35821 34.0378 5.02197 33.8799 4.4984 33.8799C3.76588 33.8799 3.27112 34.2565 3.27112 34.8932C3.27112 35.4642 3.55933 35.7388 4.40233 36.0474C5.11804 36.3074 5.33659 36.5188 5.33659 36.8832C5.33659 37.3036 5.01236 37.5612 4.49119 37.5612C4.0877 37.5612 3.74666 37.3741 3.45125 37.0874L3.16064 37.4154C3.46806 37.7289 3.946 37.9621 4.47678 37.9621C5.29336 37.9621 5.7737 37.481 5.7737 36.8614C5.7737 36.2418 5.50712 35.9769 4.6401 35.6586L4.6377 35.6634Z" fill="black"/>
<path d="M7.54845 34.874C7.16658 34.874 6.81833 34.9688 6.56135 35.1097L6.71986 35.4548C6.96003 35.3138 7.21221 35.2264 7.51963 35.2264C7.94713 35.2264 8.15848 35.4402 8.15848 35.8849V36.2372C7.98556 36.14 7.72137 36.0647 7.42356 36.0647C6.84235 36.0647 6.29956 36.349 6.29956 37.0172C6.29956 37.734 6.7823 37.9649 7.23863 37.9649C7.65893 37.9649 7.94713 37.768 8.15608 37.5421V37.9041H8.57398V35.8338C8.57398 35.1437 8.1777 34.874 7.54845 34.874ZM8.15608 37.1751C7.97836 37.423 7.69015 37.6222 7.31068 37.6222C6.95283 37.6222 6.71025 37.4279 6.71025 36.9856C6.71025 36.6138 6.96964 36.4 7.39954 36.4C7.7574 36.4 7.96395 36.4656 8.15368 36.5725V37.1727L8.15608 37.1751Z" fill="black"/>
<path d="M12.7891 36.1667V37.9041H13.2093V36.0938C13.2093 35.2264 12.8371 34.874 12.2367 34.874C11.7611 34.874 11.5209 35.0976 11.348 35.3819C11.2087 35.0976 10.9565 34.874 10.5435 34.874C10.1952 34.874 9.94783 35.0417 9.79892 35.2993V34.9372H9.37622V37.9065H9.79892V36.1692C9.79892 35.5107 10.0511 35.2409 10.4546 35.2409C10.8581 35.2409 11.0862 35.4888 11.0862 36.1692V37.9065H11.5065V36.1692C11.5065 35.5107 11.7611 35.2409 12.1598 35.2409C12.5849 35.2409 12.7915 35.4888 12.7915 36.1692L12.7891 36.1667Z" fill="black"/>
<path d="M14.8907 36.1813C14.3935 35.9529 14.2446 35.8533 14.2446 35.603C14.2446 35.3892 14.4224 35.2336 14.7322 35.2336C15.042 35.2336 15.2341 35.3187 15.4623 35.5009L15.6977 35.1875C15.4743 35.0004 15.1621 34.874 14.7562 34.874C14.2254 34.874 13.8412 35.1778 13.8412 35.6297C13.8412 36.106 14.0861 36.2858 14.6745 36.5409C15.1933 36.7669 15.3686 36.903 15.3686 37.146C15.3686 37.4351 15.1789 37.6052 14.7754 37.6052C14.4848 37.6052 14.211 37.4837 13.9756 37.2772L13.7283 37.5882C14.0093 37.8166 14.3599 37.9673 14.7634 37.9673C15.2726 37.9673 15.7697 37.7146 15.7697 37.1314C15.7697 36.5993 15.4455 36.4365 14.8907 36.1837V36.1813Z" fill="black"/>
<path d="M18.2218 36.6695C18.2218 37.3207 17.9 37.5953 17.4965 37.5953C17.0233 37.5953 16.8 37.3086 16.8 36.6695V34.9346H16.3821V36.7424C16.3821 37.5953 16.788 37.9622 17.4076 37.9622C17.7799 37.9622 18.0513 37.7873 18.2194 37.5394V37.9015H18.6397V34.9321H18.2194V36.6671L18.2218 36.6695Z" fill="black"/>
<path d="M21.6057 37.9041V36.0938C21.6057 35.2385 21.1974 34.874 20.5754 34.874C20.2079 34.874 19.9341 35.0465 19.7684 35.2993V34.9372H19.3457V37.9065H19.7684V36.1692C19.7684 35.5204 20.083 35.2409 20.4937 35.2409C20.9621 35.2409 21.1878 35.5301 21.1878 36.1692V37.9065H21.6081L21.6057 37.9041Z" fill="black"/>
<path d="M22.9266 38.6744L23.0611 38.9976C24.1515 38.9611 24.5478 38.5335 24.5478 37.6393V34.9348H24.1299V35.2677C23.9233 35.0295 23.6735 34.874 23.3037 34.874C22.6864 34.874 22.1941 35.4135 22.1941 36.468C22.1941 37.5226 22.66 37.9649 23.2484 37.9649C23.6447 37.9649 23.9257 37.768 24.1323 37.5421V37.6951C24.1323 38.3852 23.9089 38.6452 22.929 38.6744H22.9266ZM23.3517 37.5979C22.8882 37.5979 22.6072 37.2092 22.6072 36.4632C22.6072 35.6637 22.8474 35.2409 23.3349 35.2409C23.6832 35.2409 23.9666 35.4402 24.1275 35.6856V37.1703C23.9209 37.4327 23.6639 37.5979 23.3493 37.5979H23.3517Z" fill="black"/>
<path d="M29.1761 35.897C29.1761 34.5387 28.4195 33.9434 27.3916 33.9434H26.3564V37.9041H27.3123C28.3595 37.9041 29.1761 37.3331 29.1761 35.8946V35.897ZM26.7936 34.3443H27.358C28.2586 34.3443 28.7389 34.9007 28.7389 35.9116C28.7389 37.0512 28.213 37.5032 27.3676 37.5032H26.7912V34.3443H26.7936Z" fill="black"/>
<path d="M30.2951 35.3041V34.9372H29.8748V37.9066H30.2951V36.1643C30.2951 35.5957 30.5232 35.2677 30.9339 35.2677C31.1284 35.2677 31.2581 35.3114 31.3734 35.3795L31.4791 34.9518C31.3806 34.9056 31.2389 34.8789 31.0228 34.8789C30.7081 34.8789 30.4271 35.0684 30.2975 35.309L30.2951 35.3041Z" fill="black"/>
<path d="M33.989 37.6222L33.7945 37.3161C33.5255 37.4983 33.3238 37.5979 32.9803 37.5979C32.5024 37.5979 32.2046 37.197 32.1637 36.5652H34.1211C34.1356 36.4948 34.1404 36.434 34.1404 36.332C34.1404 35.4839 33.7249 34.874 32.9587 34.874C32.2598 34.874 31.7458 35.4596 31.7458 36.4024C31.7458 37.5712 32.3991 37.9649 32.9371 37.9649C33.379 37.9649 33.6384 37.8458 33.9914 37.6222H33.989ZM32.9539 35.2385C33.4679 35.2385 33.7153 35.6394 33.7489 36.2178H32.1637C32.2118 35.5544 32.5168 35.2385 32.9539 35.2385Z" fill="black"/>
<path d="M35.5357 37.9649C35.956 37.9649 36.2467 37.768 36.4532 37.5421V37.9041H36.8735V35.8338C36.8735 35.1437 36.4772 34.874 35.8432 34.874C35.4613 34.874 35.1154 34.9688 34.8585 35.1097L35.017 35.4548C35.2571 35.3138 35.5093 35.2264 35.8167 35.2264C36.2467 35.2264 36.4532 35.4402 36.4532 35.8849V36.2372C36.2827 36.14 36.0185 36.0647 35.7255 36.0647C35.1419 36.0647 34.5967 36.349 34.5967 37.0172C34.5967 37.734 35.0794 37.9649 35.5357 37.9649ZM35.6991 36.4024C36.0545 36.4024 36.2635 36.468 36.4532 36.575V37.1751C36.2755 37.423 35.9897 37.6222 35.6126 37.6222C35.2355 37.6222 35.0122 37.4279 35.0122 36.9856C35.0122 36.6138 35.2716 36.4 35.7015 36.4L35.6991 36.4024Z" fill="black"/>
<path d="M41.086 36.1667V37.9041H41.5039V36.0938C41.5039 35.2264 41.1316 34.874 40.5312 34.874C40.0556 34.874 39.8155 35.0976 39.6425 35.3819C39.5032 35.0976 39.2535 34.874 38.838 34.874C38.4897 34.874 38.2447 35.0417 38.0934 35.2993V34.9372H37.6755V37.9065H38.0934V36.1692C38.0934 35.5107 38.3456 35.2409 38.7491 35.2409C39.1526 35.2409 39.3807 35.4888 39.3807 36.1692V37.9065H39.7986V36.1692C39.7986 35.5107 40.0556 35.2409 40.4543 35.2409C40.877 35.2409 41.086 35.4888 41.086 36.1692V36.1667Z" fill="black"/>
<path d="M44.6431 35.6634C43.8601 35.3816 43.716 35.1945 43.716 34.8664C43.716 34.5384 43.9394 34.2833 44.4749 34.2833C44.8688 34.2833 45.1306 34.412 45.414 34.6502L45.6926 34.3051C45.3636 34.0403 45.0273 33.8823 44.5038 33.8823C43.7712 33.8823 43.2789 34.2565 43.2789 34.8932C43.2789 35.4642 43.5623 35.7412 44.4101 36.0449C45.1258 36.3074 45.3444 36.5163 45.3444 36.8833C45.3444 37.3012 45.0201 37.5612 44.499 37.5612C44.0955 37.5612 43.7544 37.3717 43.4566 37.0849L43.166 37.4105C43.4734 37.7289 43.9514 37.9597 44.4798 37.9597C45.2939 37.9597 45.7767 37.4786 45.7767 36.859C45.7767 36.2393 45.5101 35.9745 44.6431 35.6562V35.6634Z" fill="black"/>
<path d="M47.5587 35.2409C47.8541 35.2409 48.051 35.3479 48.2624 35.5422L48.5145 35.2239C48.284 35.0198 47.9814 34.874 47.5851 34.874C46.9702 34.874 46.3218 35.3357 46.3218 36.4365C46.3218 37.4716 46.9102 37.9673 47.5587 37.9673C47.9693 37.9673 48.2552 37.8094 48.5025 37.5542L48.2504 37.2845C48.051 37.4813 47.8589 37.6004 47.5755 37.6004C47.0543 37.6004 46.7469 37.1314 46.7469 36.4C46.7469 35.6686 47.1023 35.2409 47.5611 35.2409H47.5587Z" fill="black"/>
<path d="M50.311 34.8738C49.9435 34.8738 49.6673 35.0463 49.4992 35.2991V33.9019H49.0813V37.9063H49.4992V36.169C49.4992 35.5177 49.821 35.2407 50.2269 35.2407C50.6977 35.2407 50.9186 35.5275 50.9186 36.169V37.9063H51.3389V36.0936C51.3389 35.2407 50.9306 34.8738 50.3086 34.8738H50.311Z" fill="black"/>
<path d="M53.2122 34.874C52.4989 34.874 51.9272 35.4135 51.9272 36.4243C51.9272 37.4351 52.4748 37.9673 53.1905 37.9673C53.9063 37.9673 54.4779 37.4084 54.4779 36.4C54.4779 35.3916 53.9255 34.874 53.2122 34.874ZM53.205 37.6004C52.6958 37.6004 52.3523 37.1946 52.3523 36.4122C52.3523 35.6297 52.6958 35.2409 53.205 35.2409C53.7141 35.2409 54.0576 35.6322 54.0576 36.4122C54.0576 37.1922 53.7117 37.6004 53.205 37.6004Z" fill="black"/>
<path d="M55.5324 33.9019H55.1121V37.9063H55.5324V33.9019Z" fill="black"/>
<path d="M57.4489 34.874C57.0694 34.874 56.7212 34.9712 56.4666 35.1122L56.6227 35.4596C56.8629 35.3163 57.115 35.2312 57.4225 35.2312C57.8524 35.2312 58.0589 35.4475 58.0589 35.8849V36.2396C57.886 36.14 57.6218 36.0671 57.3288 36.0671C56.7452 36.0671 56.2024 36.3514 56.2024 37.0196C56.2024 37.7389 56.6827 37.9673 57.1415 37.9673C57.5618 37.9673 57.8524 37.7729 58.0589 37.5445V37.9065H58.4792V35.8363C58.4792 35.1437 58.0829 34.874 57.4489 34.874ZM58.0589 37.1751C57.8812 37.423 57.593 37.6222 57.2159 37.6222C56.8605 37.6222 56.6179 37.4279 56.6179 36.988C56.6179 36.6138 56.8773 36.4049 57.3072 36.4049C57.665 36.4049 57.8716 36.468 58.0613 36.575V37.1751H58.0589Z" fill="black"/>
<path d="M59.6994 35.3041V34.9348H59.2791V37.9065H59.6994V36.1643C59.6994 35.5981 59.9275 35.2652 60.3358 35.2652C60.5327 35.2652 60.66 35.309 60.7777 35.377L60.8834 34.9469C60.7849 34.9032 60.6432 34.874 60.4271 34.874C60.1124 34.874 59.8314 35.0636 59.6994 35.3041Z" fill="black"/>
<path d="M62.4948 36.1813C61.9952 35.9529 61.8463 35.8508 61.8463 35.6006C61.8463 35.3867 62.0264 35.2312 62.3339 35.2312C62.6413 35.2312 62.8382 35.3187 63.0664 35.4985L63.3018 35.1875C63.076 35.0004 62.7662 34.8716 62.3627 34.8716C61.8295 34.8716 61.4452 35.1753 61.4452 35.6297C61.4452 36.106 61.6926 36.2858 62.281 36.5385C62.7998 36.7645 62.9751 36.9006 62.9751 37.1435C62.9751 37.4351 62.783 37.6028 62.3843 37.6028C62.0913 37.6028 61.8175 37.4813 61.5821 37.2748L61.3372 37.5858C61.6158 37.8142 61.9688 37.9649 62.3723 37.9649C62.8791 37.9649 63.3786 37.7121 63.3786 37.129C63.3786 36.5944 63.0544 36.434 62.4996 36.1789L62.4948 36.1813Z" fill="black"/>
<path d="M65.288 34.8738C64.9182 34.8738 64.6444 35.0463 64.4762 35.2991V33.9019H64.0583V37.9063H64.4762V36.169C64.4762 35.5177 64.7957 35.2407 65.204 35.2407C65.6723 35.2407 65.8957 35.5275 65.8957 36.169V37.9063H66.316V36.0936C66.316 35.2407 65.9077 34.8738 65.288 34.8738Z" fill="black"/>
<path d="M67.5624 34.9346H67.1445V37.9063H67.5624V34.9346Z" fill="black"/>
<path d="M67.3631 33.7974C67.1902 33.7974 67.0557 33.9334 67.0557 34.106C67.0557 34.2688 67.1902 34.4048 67.3631 34.4048C67.5168 34.4048 67.6537 34.2688 67.6537 34.106C67.6537 33.9334 67.5168 33.7974 67.3631 33.7974Z" fill="black"/>
<path d="M69.7121 34.874C69.3158 34.874 69.0348 35.0708 68.8283 35.2993V34.9372H68.4104V39H68.8283V37.5736C69.0348 37.8094 69.287 37.9673 69.6569 37.9673C70.2717 37.9673 70.7641 37.423 70.7641 36.3733C70.7641 35.3236 70.2981 34.874 69.7121 34.874ZM69.6233 37.6004C69.2774 37.6004 68.9916 37.4011 68.8283 37.1533V35.671C69.0348 35.4135 69.2942 35.2409 69.6064 35.2409C70.0724 35.2409 70.3534 35.6322 70.3534 36.3781C70.3534 37.1751 70.1132 37.6004 69.6233 37.6004Z" fill="black"/>
<path d="M72.9855 34.3467H74.8492V33.9458H72.5483V37.9065H72.9855V36.0598H74.059V35.6613H72.9855V34.3467Z" fill="black"/>
<path d="M76.1245 34.874C75.4112 34.874 74.8372 35.4135 74.8372 36.4243C74.8372 37.4351 75.3872 37.9673 76.1005 37.9673C76.8138 37.9673 77.3878 37.4084 77.3878 36.4C77.3878 35.3916 76.8402 34.874 76.1245 34.874ZM76.1125 37.6004C75.6033 37.6004 75.2623 37.1946 75.2623 36.4122C75.2623 35.6297 75.6033 35.2409 76.1125 35.2409C76.6216 35.2409 76.9699 35.6322 76.9699 36.4122C76.9699 37.1922 76.624 37.6004 76.1125 37.6004Z" fill="black"/>
<path d="M79.7054 36.6695C79.7054 37.3207 79.3884 37.5977 78.9801 37.5977C78.5094 37.5977 78.286 37.311 78.286 36.6695V34.9346H77.8657V36.7448C77.8657 37.6002 78.274 37.9671 78.8961 37.9671C79.2611 37.9671 79.5349 37.7946 79.703 37.5443V37.9063H80.1233V34.9346H79.703V36.6695H79.7054Z" fill="black"/>
<path d="M82.0592 34.874C81.6918 34.874 81.418 35.0465 81.2474 35.2993V34.9372H80.8271V37.909H81.2474V36.1716C81.2474 35.5204 81.5669 35.2434 81.9752 35.2434C82.4459 35.2434 82.6693 35.5301 82.6693 36.1716V37.909H83.0872V36.0963C83.0872 35.2434 82.6789 34.8765 82.0568 34.8765L82.0592 34.874Z" fill="black"/>
<path d="M85.6138 35.2699C85.4072 35.0318 85.155 34.8738 84.7852 34.8738C84.1703 34.8738 83.678 35.4133 83.678 36.4703C83.678 37.5273 84.1415 37.9671 84.7299 37.9671C85.1262 37.9671 85.4048 37.7727 85.6138 37.5443V37.9063H86.0341V33.9019H85.6138V35.2723V35.2699ZM85.6138 37.1701C85.4072 37.4301 85.1478 37.6002 84.8356 37.6002C84.3721 37.6002 84.0911 37.2114 84.0911 36.463C84.0911 35.6635 84.3312 35.2407 84.8188 35.2407C85.167 35.2407 85.448 35.4376 85.6138 35.6878V37.1701Z" fill="black"/>
<path d="M87.8138 34.874C87.432 34.874 87.0861 34.9712 86.8291 35.1122L86.9852 35.4596C87.2278 35.3163 87.48 35.2312 87.785 35.2312C88.2149 35.2312 88.4215 35.4475 88.4215 35.8849V36.2396C88.2485 36.14 87.9844 36.0671 87.6889 36.0671C87.1101 36.0671 86.5649 36.3514 86.5649 37.0196C86.5649 37.7389 87.0477 37.9673 87.5064 37.9673C87.9267 37.9673 88.2149 37.7729 88.4215 37.5445V37.9065H88.8418V35.8363C88.8418 35.1437 88.4455 34.874 87.8138 34.874ZM88.4215 37.1751C88.2437 37.423 87.9579 37.6222 87.5761 37.6222C87.2206 37.6222 86.9804 37.4279 86.9804 36.988C86.9804 36.6138 87.2374 36.4049 87.6673 36.4049C88.0252 36.4049 88.2317 36.468 88.4215 36.575V37.1751Z" fill="black"/>
<path d="M90.1794 33.9019H89.7591V34.937H89.3965V35.2942H89.7591V37.2989C89.7591 37.7897 89.9561 37.9695 90.3211 37.9695C90.5421 37.9695 90.6982 37.9379 90.8615 37.8675L90.8903 37.5005C90.7559 37.5564 90.6454 37.5856 90.4748 37.5856C90.2515 37.5856 90.1794 37.4957 90.1794 37.2284V35.2942H90.9072V34.937H90.1794V33.9019Z" fill="black"/>
<path d="M91.8582 33.7974C91.6852 33.7974 91.5483 33.9334 91.5483 34.106C91.5483 34.2688 91.6852 34.4048 91.8582 34.4048C92.0167 34.4048 92.1512 34.2688 92.1512 34.106C92.1512 33.9334 92.0167 33.7974 91.8582 33.7974Z" fill="black"/>
<path d="M92.0575 34.9346H91.6396V37.9063H92.0575V34.9346Z" fill="black"/>
<path d="M93.979 34.874C93.2657 34.874 92.6941 35.4135 92.6941 36.4243C92.6941 37.4351 93.2417 37.9673 93.9574 37.9673C94.6731 37.9673 95.2423 37.4084 95.2423 36.4C95.2423 35.3916 94.6947 34.874 93.979 34.874ZM93.9646 37.6004C93.4578 37.6004 93.1168 37.1946 93.1168 36.4122C93.1168 35.6297 93.4578 35.2409 93.9646 35.2409C94.4714 35.2409 94.822 35.6322 94.822 36.4122C94.822 37.1922 94.4762 37.6004 93.9646 37.6004Z" fill="black"/>
<path d="M97.077 34.874C96.7072 34.874 96.4334 35.0465 96.2653 35.2993V34.9372H95.845V37.909H96.2653V36.1716C96.2653 35.5204 96.5847 35.2434 96.993 35.2434C97.4661 35.2434 97.6871 35.5301 97.6871 36.1716V37.909H98.105V36.0963C98.105 35.2434 97.6967 34.8765 97.077 34.8765V34.874Z" fill="black"/>
<path d="M53.7406 6.59234L50.5151 5.24131L53.7406 3.89028L53.1666 2.49065L49.9411 3.84168L51.2789 0.578318L49.8955 0L48.5601 3.26336L47.2224 0L45.8414 0.578318L47.1767 3.84168L43.9512 2.49065L43.3796 3.89028L46.6027 5.24131L43.3796 6.59234L43.9512 7.99196L47.1767 6.63851L45.8414 9.90187L47.2248 10.4826L48.5601 7.21925L49.8955 10.4826L51.2789 9.90187L49.9411 6.63851L53.1666 7.99196L53.7406 6.59234Z" fill="#009FE3"/>
<path d="M32.8627 15.702H35.0098V9.90186H27.6726V11.8555H32.8627V15.702Z" fill="#009FE3"/>
<path d="M41.235 15.702H43.3797V9.90186H36.0425V11.8555H41.235V15.702Z" fill="#009FE3"/>
<path d="M27.3267 18.7007H41.235V21.6871H43.3797V16.7471H27.3267V18.7007Z" fill="#009FE3"/>
<path d="M32.5168 30.8112H43.3774V22.6929H32.5168V30.8112ZM34.664 24.6465H41.2351V28.8575H34.664V24.6465Z" fill="#009FE3"/>
</svg>
