<svg width="66" height="66" viewBox="0 0 66 66" fill="none" xmlns="http://www.w3.org/2000/svg">
<g opacity="0.9">
<path d="M32.8476 31.4117V26.4741C32.8476 22.7208 29.7829 19.6816 25.9982 19.6816H23.3638C19.5791 19.6816 16.5144 22.7208 16.5144 26.4741V34.7818L21.2826 45.6671C21.7656 46.7644 21.3968 47.9313 20.5977 48.6192C21.4495 48.9937 22.3803 49.2027 23.3726 49.2027H26.007C28.5184 49.2027 30.705 47.8616 31.8992 45.8674C30.2659 44.0735 29.2648 41.7136 29.2648 39.1098C29.2648 36.0271 30.6611 33.2665 32.8652 31.4117H32.8476Z" fill="#A4BC49"/>
</g>
<path d="M42.103 45.9019L46.801 32.169C44.9481 30.2271 42.3313 29.0166 39.4247 29.0166C36.9133 29.0166 34.6214 29.9223 32.8475 31.4114V42.4012C32.8475 43.6639 32.4875 44.8482 31.8816 45.8671C33.7432 47.9048 36.4303 49.2024 39.4247 49.2024C40.6629 49.2024 41.8396 48.976 42.9372 48.5754C42.1645 47.9484 41.7781 46.9295 42.103 45.9106V45.9019Z" fill="#68AC45"/>
<path d="M32.8476 31.4116C30.6435 33.2665 29.2473 36.0183 29.2473 39.1097C29.2473 41.7135 30.2484 44.0822 31.8817 45.8674C32.4876 44.8485 32.8476 43.6729 32.8476 42.4015V31.4116Z" fill="#458C39"/>
<path d="M49.6023 39.1007C49.6023 36.4098 48.531 33.9715 46.8011 32.1602L42.1031 45.8931C41.7782 46.912 42.1645 47.9308 42.9373 48.5578C46.8186 47.1384 49.6023 43.4461 49.6023 39.1007Z" fill="#34763C"/>
<path d="M16.5056 42.4012V34.7815L13.4848 27.8932C12.6155 25.9165 9.86693 25.9165 8.99758 27.8932L1.21736 45.6581C0.488518 47.3214 1.68277 49.1937 3.45659 49.1937H19.0258C19.6317 49.1937 20.1674 48.9672 20.5801 48.6102C18.174 47.5565 16.4968 45.1704 16.4968 42.4012H16.5056Z" fill="#35763C"/>
<path d="M21.2739 45.6583L16.5056 34.7729V42.3927C16.5056 45.1706 18.1828 47.548 20.5889 48.6017C21.3968 47.9224 21.7568 46.7468 21.2739 45.6496V45.6583Z" fill="#25602E"/>
<path d="M65.0573 45.7278L56.5219 18.6016C55.6262 16.3897 52.1049 16.4942 51.3849 18.7583L46.801 32.1604C48.5309 33.9717 49.6023 36.41 49.6023 39.1008C49.6023 43.4463 46.8274 47.1386 42.9373 48.558C43.4202 48.9499 44.0437 49.185 44.7462 49.185H62.4668C64.3987 49.185 65.7335 47.3998 65.0485 45.7191L65.0573 45.7278Z" fill="#648943"/>
</svg>
